<svg width="60" height="60" viewBox="0 0 60 60" fill="none" xmlns="http://www.w3.org/2000/svg">
<rect width="60" height="60" rx="8" fill="#0F1D58"/>
<path fill-rule="evenodd" clip-rule="evenodd" d="M25.375 20.7534V20.7534C25.375 18.2001 27.445 16.1284 30 16.1284V16.1284C32.5533 16.1284 34.625 18.1984 34.625 20.7534V20.7534C34.625 23.3068 32.555 25.3784 30 25.3784V25.3784C27.445 25.3751 25.375 23.3051 25.375 20.7534Z" stroke="white" stroke-width="2" stroke-linecap="round" stroke-linejoin="round"/>
<path fill-rule="evenodd" clip-rule="evenodd" d="M14.168 39.2468V39.2468C14.168 36.6935 16.238 34.6218 18.793 34.6218V34.6218C21.3463 34.6218 23.418 36.6918 23.418 39.2468V39.2468C23.4163 41.8002 21.348 43.8718 18.793 43.8718V43.8718C16.238 43.8718 14.168 41.8018 14.168 39.2468Z" stroke="white" stroke-width="2" stroke-linecap="round" stroke-linejoin="round"/>
<path fill-rule="evenodd" clip-rule="evenodd" d="M36.5859 39.2468V39.2468C36.5859 36.6935 38.6559 34.6218 41.2109 34.6218V34.6218C43.7643 34.6218 45.8359 36.6918 45.8359 39.2468V39.2468C45.8359 41.8002 43.7659 43.8718 41.2109 43.8718V43.8718C38.6543 43.8718 36.5859 41.8018 36.5859 39.2468V39.2468Z" stroke="white" stroke-width="2" stroke-linecap="round" stroke-linejoin="round"/>
<path d="M24.1508 29.8667L20.8008 35.1" stroke="white" stroke-width="2" stroke-linecap="round" stroke-linejoin="round"/>
<path d="M32.5 24.6333L35.85 29.8666" stroke="white" stroke-width="2" stroke-linecap="round" stroke-linejoin="round"/>
<path d="M36.5833 39.2501H30" stroke="white" stroke-width="2" stroke-linecap="round" stroke-linejoin="round"/>
</svg>
