<svg width="186" height="36" viewBox="0 0 186 36" fill="none" xmlns="http://www.w3.org/2000/svg">
  <path fill-rule="evenodd" clip-rule="evenodd"
        d="M11.724 8.76029C11.724 6.6247 12.3777 5.66586 14.5569 5.66586H17.6513V0.261501C16.3002 0.0871671 14.9056 0 13.5545 0C7.06053 0 4.70702 3.05085 4.70702 8.89104V12.3341H0V18.0436H4.70702V35.4334H11.724V18.0436H16.9976L17.5642 12.2906H11.724V8.76029ZM27.5448 11.8112C21.0944 11.8112 18.0436 16.6925 18.0436 23.1429L18 24.6247C18 31.1187 21.0944 35.9564 27.5012 35.9564C30.9879 35.9564 33.2107 34.2131 34.1695 31.9903V35.477H40.9249V12.3342H34.2131V15.8644C33.1671 13.5981 31.0315 11.8112 27.5448 11.8112ZM29.5932 30.4649C26.3245 30.4649 25.0605 28.155 25.0605 24.7119V23.0557C25.0605 19.569 26.3245 17.3027 29.5932 17.3027C32.4262 17.3027 33.908 19.3947 33.908 22.707V25.0606C33.908 28.3729 32.4697 30.4649 29.5932 30.4649ZM55.4818 11.8112C58.1839 11.8112 60.7989 12.3777 62.1936 13.3802L60.6246 18.3487C59.1864 17.6514 57.5738 17.3027 55.9612 17.3027C52.1694 17.3027 50.5132 19.4819 50.5132 23.23V24.5811C50.5132 28.3293 52.1694 30.5085 55.9612 30.5085C57.5738 30.5085 59.1864 30.1163 60.6246 29.4189L62.1936 34.3874C60.7989 35.3463 58.2275 35.9564 55.4818 35.9564C47.2445 35.9564 43.5399 31.5545 43.5399 24.4504V23.3608C43.5399 16.2567 47.2445 11.8112 55.4818 11.8112ZM63.1091 22.707V24.7555C63.1091 31.5545 66.4214 35.9564 75.3125 36C78.6684 36 82.4602 35.2591 84.2907 34.3003L83.0268 29.5061C80.6297 30.4213 78.1018 30.9008 75.574 30.9008C71.6951 30.9008 70.2568 29.5061 70.126 26.3245H84.8573V22.6199C84.8573 16.1695 81.6757 11.8112 74.4844 11.8112C66.8573 11.8112 63.1091 16.1259 63.1091 22.707ZM78.5813 21.7046H70.126C70.126 18.6102 71.3464 16.6054 74.4844 16.6054C77.5788 16.6054 78.5813 18.6102 78.5813 21.138V21.7046ZM110.833 24.6247C110.833 31.075 107.738 35.9564 101.288 35.9564C97.8013 35.9564 95.3607 34.213 94.4018 31.9903V35.477H87.7771V0.697296L94.7941 0.0871264V15.5593C95.7965 13.5109 98.0629 11.8547 101.332 11.8547C107.738 11.8547 110.876 16.6925 110.876 23.1864L110.833 24.6247ZM103.816 23.0121C103.816 19.7433 102.552 17.3026 99.196 17.3026C96.3195 17.3026 94.7941 19.351 94.7941 22.6634V25.1041C94.7941 28.4164 96.3631 30.4649 99.196 30.4649C102.552 30.4649 103.816 28.0242 103.816 24.7554V23.0121ZM113.143 23.2736V24.4504C113.143 31.1623 116.935 35.9129 124.649 35.9129C132.363 35.9129 136.155 31.1187 136.155 24.4504V23.2736C136.155 16.6054 132.363 11.8112 124.649 11.8112C116.935 11.8112 113.143 16.6054 113.143 23.2736ZM124.649 17.3027C127.918 17.3027 129.181 19.7434 129.181 22.7942V24.9734C129.181 28.0242 127.918 30.4649 124.649 30.4649C121.38 30.4649 120.116 28.0242 120.116 24.9734V22.7942C120.116 19.7434 121.38 17.3027 124.649 17.3027ZM138.552 24.4504V23.2736C138.552 16.6054 142.344 11.8112 150.058 11.8112C157.772 11.8112 161.564 16.6054 161.564 23.2736V24.4504C161.564 31.1187 157.772 35.9129 150.058 35.9129C142.344 35.9129 138.552 31.1623 138.552 24.4504ZM154.591 22.7942C154.591 19.7434 153.327 17.3027 150.058 17.3027C146.789 17.3027 145.525 19.7434 145.525 22.7942V24.9734C145.525 28.0242 146.789 30.4649 150.058 30.4649C153.327 30.4649 154.591 28.0242 154.591 24.9734V22.7942ZM178.126 12.2905L171.196 23.3608V0.0435632L164.223 0.697316V35.477H171.196V24.1453L178.388 35.477H185.84L178.3 23.753L185.535 12.2905H178.126Z"
        fill="#2C2C2C"/>
</svg>
