<svg width="57" height="56" viewBox="0 0 57 56" fill="none" xmlns="http://www.w3.org/2000/svg">
  <path
    d="M28.3946 9.84319C29.392 10.4181 30.45 11.1579 31.2554 11.942L30.939 12.2599C29.3497 12.0909 27.6759 12.3018 26.1693 12.3251C26.0013 12.1555 25.6628 11.9007 25.9781 11.6877L28.3946 9.84319ZM56.4956 29.5848C56.5168 30.3022 56.5842 30.9182 56.3044 31.6524C53.4009 32.4781 51.4938 29.404 48.6766 29.8677L48.9951 31.4611C51.6014 31.5468 53.2293 34.046 55.9219 33.9386C55.5394 34.7027 56.0925 36.7155 54.3978 35.9109C52.6386 35.4882 51.3667 33.9386 49.439 33.9386C49.2064 34.3657 49.3536 34.957 49.3129 35.4621C51.3465 35.7812 52.8091 37.5 54.8422 37.8173C54.6509 38.516 54.4614 39.2984 53.8888 39.7245C52.2348 39.322 50.9429 37.8366 49.182 37.879L48.8685 39.3422C50.5419 39.3852 51.6231 40.8657 53.127 41.3101C53.1684 41.9273 52.6167 42.4788 52.299 43.0297C50.9638 42.6287 49.9457 41.4818 48.4202 41.5663C48.3991 40.9916 48.7403 40.339 48.6115 39.7245C46.8982 40.2341 45.7494 38.6421 44.4796 37.6872C44.443 34.5623 41.1533 32.5122 40.9796 29.5848C40.9463 29.0012 41.0352 28.3781 41.3011 27.7085C42.3823 25.2085 42.0427 21.9628 40.8571 19.632C40.4969 19.0186 39.8586 18.5344 39.2637 18.1738C40.134 20.0183 41.1946 22.1977 40.6653 24.4649C40.6039 26.2156 39.5709 27.8971 39.5591 29.5848C39.5551 30.1866 39.6835 30.7883 40.0296 31.396C41.408 33.8784 43.8878 36.2283 42.9553 39.3416C42.6989 40.2979 41.9355 41.0373 41.745 42.0105C43.3575 43.3461 44.8821 44.8509 47.0217 44.9357C47.784 44.4488 47.3606 42.2896 48.9288 43.2855L51.2187 44.4309C51.0518 45.0439 50.5387 45.5933 50.0739 46.0154C49.2051 45.5925 48.3576 45.0856 47.2743 45.1269C46.9548 45.4658 46.6799 45.8462 46.7043 46.3325C47.4667 46.4581 48.1659 46.7798 48.8027 47.2255C48.5071 47.8623 47.9309 48.2614 47.4011 48.7491L45.6248 48.114C45.3282 48.5384 44.7122 48.9843 44.9284 49.4501C45.3292 49.6217 45.7738 49.8537 46.0689 50.1511C45.2848 50.9985 44.291 51.5437 43.3348 52.119C42.5111 49.4268 39.7972 47.5393 40.0302 44.4259L39.9041 44.3C39.2661 45.0172 39.4793 46.1641 39.5204 47.0949C40.2839 49.0449 42.105 50.5511 42.3812 52.6895C42.0623 53.2398 41.3434 53.3495 40.792 53.5825C40.856 49.727 35.0078 46.8028 38.7581 42.903C40.0089 40.9933 42.1044 39.1709 41.3619 36.5418C40.5996 34.0034 37.9032 32.4305 37.927 29.5848L37.9312 29.3629C38.5453 26.3953 40.411 23.2376 38.8848 20.0806C38.4594 18.8108 37.5091 17.3679 36.2164 16.8372C38.1436 19.043 38.9076 22.6421 37.8051 25.6103C37.2494 26.7909 36.4844 28.1975 36.4077 29.5854H36.4031C36.3622 30.3102 36.5102 31.031 36.9778 31.7145C38.4411 34.0887 40.9826 36.6967 39.5206 39.7908C37.868 42.269 34.9861 44.79 36.5955 48.0542C37.7609 50.0036 39.5637 51.9489 39.0774 54.3454L37.1702 54.9805C38.4417 50.5105 32.2108 47.8841 34.8192 43.4125C36.4296 41.0181 39.3098 38.7715 37.6794 35.5936C36.7047 33.6245 34.6906 32.4591 34.7542 29.9984L34.8236 29.5852C35.4798 26.0953 38.1327 22.7918 36.2778 19.0624C35.7903 17.9612 34.8162 16.8385 33.7349 16.2023L33.6696 16.2676C35.8322 18.3654 36.4902 21.8171 35.3242 24.5917C34.7801 26.2196 33.5862 27.8413 33.3435 29.5858C33.2281 30.4083 33.3254 31.2607 33.8007 32.1587C35.1779 34.3396 37.5931 36.6531 36.0859 39.4727C34.4988 41.8016 31.8491 44.0676 32.9075 47.0962C34.0732 49.7459 36.5075 52.2701 35.1931 55.5556L33.2252 56C34.7927 52.7981 32.4423 49.6209 31.0654 46.844C29.3905 42.8599 34.6641 40.9522 34.7487 37.3097C34.7287 34.9587 32.2293 33.6237 31.7011 31.4625C30.6193 30.5498 29.4981 31.8253 28.2049 31.5886C27.2502 31.7804 25.7838 30.2744 25.2138 31.9069C24.5351 34.3002 21.4431 36.0597 22.8021 38.8983C24.0951 41.421 27.2069 43.2657 26.1674 46.5303C25.2367 49.5796 22.1622 52.483 24.069 56C23.2857 55.7463 21.823 56.232 21.8441 54.9807C20.6368 50.7216 25.7853 48.2403 24.1951 43.9834C23.4551 41.376 20.0832 39.9356 20.8256 36.7996C21.3744 34.2181 24.2711 32.4134 23.8648 29.5856C23.8318 29.3488 23.7736 29.1065 23.6903 28.8539C22.6091 25.8025 20.4032 22.7503 21.718 19.1889C22.079 18.1717 22.8 17.3031 23.4335 16.3939C21.3355 17.5166 20.2771 19.8907 20.3206 22.3059C20.2291 24.9323 22.1693 27.1822 22.4453 29.5856C22.5539 30.5555 22.395 31.5487 21.718 32.6023C20.3417 34.4699 18.5418 36.439 19.367 38.898C20.1516 41.3783 23.2451 42.8809 23.0545 45.7639C23.0335 49.1742 19.0708 51.2976 20.1939 55.1116L18.2216 54.4717C17.4385 51.0825 21.0402 49.3485 21.0816 46.2127C21.5913 42.6066 16.992 41.2686 17.268 37.7533C17.2482 35.0825 19.5992 33.391 20.6375 31.1443C20.8157 30.5976 20.8749 30.081 20.8511 29.5858C20.7238 27.1018 18.4856 25.1598 18.8571 22.367C18.982 20.3117 19.6813 18.51 21.0168 16.9642C19.1742 17.7044 18.413 19.8255 17.904 21.6058C17.0207 24.4605 19.1293 27.0283 19.3407 29.586C19.4344 30.7154 19.1584 31.8383 18.0957 32.9864C16.5691 34.7853 15.021 37.0552 16.1232 39.4731C17.2903 42.1408 20.957 44.2174 19.3666 47.5448C18.4989 49.643 16.4213 51.2313 16.5066 53.7098C15.9561 53.4766 15.385 53.2442 14.9172 52.8215C14.9172 49.6647 19.4078 47.693 17.2682 44.3661C17.0787 45.0225 17.0379 45.9146 16.8895 46.6562C16.147 48.5854 14.5583 50.1297 13.9638 52.1241C12.9696 51.7405 11.9301 50.9343 11.1032 50.0869L12.2486 49.3859C12.1214 48.9613 11.7829 48.6014 11.4869 48.2412C10.743 48.1366 10.2546 48.6247 9.64142 48.8159C9.11168 48.3489 8.60041 47.9248 8.17809 47.3528C8.55831 46.2699 11.5292 47.1653 10.0241 45.3849C9.00805 44.7496 7.98818 45.6571 7.09841 46.0807L5.89224 44.5572C6.93059 43.9221 7.96627 43.03 9.25778 43.2859C9.57609 43.859 9.59818 44.702 10.2114 45.0012C12.3944 44.9587 13.9411 43.3076 15.6146 42.0145C14.4482 40.279 13.4988 37.883 14.5349 35.7843C15.365 33.6811 17.528 31.9097 17.6261 29.5846C17.6482 29.0554 17.5657 28.4986 17.3343 27.8994C16.1906 24.9535 15.787 20.9721 17.9699 18.3647C16.783 18.6836 16.0832 20.1629 15.6799 21.2862C14.3676 24.1628 16.0274 26.8277 16.0847 29.5844C16.0925 30.0803 16.0523 30.5773 15.9321 31.0779C14.8086 33.3451 12.9883 35.3343 12.6927 37.9432C11.3996 38.7681 10.338 40.2104 8.49564 39.7237C8.43087 40.2106 8.57926 40.9528 8.74823 41.5042C7.28718 41.4429 6.29093 42.5197 5.06076 43.0283C4.40548 42.818 4.23499 41.9709 3.98126 41.3781C5.42116 40.8918 6.45989 39.4483 8.11314 39.4711C8.30477 38.9387 8.0057 38.4509 7.92132 37.9429C5.86481 37.03 2.60498 42.4551 2.33087 37.7516C4.38586 37.6244 5.69908 35.7168 7.73426 35.5267L7.79502 34.0032C5.48535 33.7698 3.99955 36.1443 1.69083 35.9102L1.18165 33.8771C3.8523 34.044 5.44345 31.6507 7.98684 31.5219C8.32477 31.0775 8.36553 30.4205 8.43068 29.8065C5.65451 29.4448 3.74943 32.5214 0.802963 31.587C0.802963 31.587 0.701433 30.3066 0.646382 29.5846H0.650382C0.630381 29.3023 0.611332 29.1055 0.611332 29.1055C3.23874 30.125 5.54726 28.2379 7.79502 27.2637C8.36668 27.0927 9.25816 27.3892 9.51456 26.7542C9.49227 26.2667 10.3813 25.6968 9.64123 25.3565C6.35512 24.9106 4.17213 28.8741 0.802582 27.0719L0.549805 26.5623C1.2508 16.9855 6.6519 7.72668 15.6146 3.17039C19.2445 1.09597 23.7541 0.0385728 28.302 0.00104666C33.7906 -0.04448 39.3364 1.39523 43.462 4.3156C47.4684 6.77309 51.3006 10.8231 53.3804 14.9344C55.3694 18.5365 56.2849 22.5785 56.5583 26.8816C53.0823 29.508 50.7503 24.4072 47.2106 25.5487C47.4013 26.1008 47.5069 26.6719 47.9114 27.138C51.0486 27.1159 53.2089 30.4007 56.4928 29.1061L56.4956 29.5848ZM16.567 17.7902C14.3629 16.3487 11.5684 17.706 9.51418 18.491C9.3235 16.5617 8.54002 14.8041 6.90639 13.5328C6.74791 13.4539 6.52885 13.288 6.3315 13.2758C6.2134 13.2684 6.10101 13.316 6.01377 13.467C6.7542 18.0222 3.79306 21.2007 1.69464 24.6561C2.39335 25.2272 3.5159 25.1419 4.36338 24.974C6.5879 24.0845 8.70689 22.5362 11.3556 23.0669C12.1389 21.7319 13.455 20.4389 14.5341 19.3794C15.1934 18.8089 16.0992 18.4466 16.567 17.7902ZM23.3069 20.6509C23.2646 20.9252 23.328 21.4142 23.7509 21.2252C24.4088 20.3141 25.5737 21.0349 26.2937 21.0991V20.8427C25.8986 20.2223 25.0858 19.9107 24.2604 19.9417C24.07 19.9484 23.8764 19.9762 23.6901 20.0194C23.4139 20.0808 23.2217 20.3336 23.3069 20.6509ZM33.6687 17.921C33.077 16.6069 31.7207 16.075 30.49 15.7573C29.8867 15.683 29.2606 15.6327 28.6396 15.6268C28.5232 15.6256 28.407 15.6241 28.2912 15.6268C26.5541 15.6618 24.8944 16.1078 23.8804 17.5376C23.7349 17.9412 23.095 18.5081 23.6892 18.8699C25.0243 18.7845 26.5478 18.6171 27.4378 19.7629C27.4378 20.781 28.0952 22.1356 26.9938 22.623C26.0811 21.778 25.0003 22.9827 24.0073 22.3045C23.5404 22.0287 23.2449 22.3506 23.0537 22.7531C22.7777 25.3802 24.1532 28.2794 26.6109 29.741C27.6069 30.1003 28.9459 30.442 29.9854 29.9323C32.4857 28.768 33.5214 26.0996 33.987 23.6412C33.9245 23.1734 33.9468 22.2617 33.2903 22.2396C32.5492 22.7084 31.4681 22.4314 30.6826 22.2396C30.2181 22.3895 30.1968 23.069 29.6682 23.1977L29.3461 22.9408C29.0703 21.7771 28.9002 20.1236 29.9819 19.3185C31.1908 18.831 32.6105 18.618 33.8607 19.0005C34.094 18.5982 33.7338 18.2814 33.6687 17.921ZM32.393 20.0105C32.3089 20.0126 32.2272 20.0168 32.1446 20.0194C31.7005 20.3157 30.4065 20.1027 30.8736 21.0991C31.6794 20.4618 32.8025 20.9085 33.6077 21.2252C33.9054 21.0774 33.8409 20.7806 33.8605 20.5248C33.602 20.0438 32.9842 19.9987 32.393 20.0105ZM41.6191 11.0511C40.0506 10.9678 38.7372 11.8582 37.2959 12.2611C37.1704 11.0347 38.1021 9.73956 38.3147 8.50844C35.9844 8.65835 34.1388 10.0609 32.211 11.1814C31.7649 10.1034 31.3175 9.0199 30.8744 7.93793L33.4172 5.52158L33.4824 5.20328L30.0477 5.01203C29.456 3.97539 29.2228 2.72674 28.5236 1.77316C27.9513 2.8538 27.5669 3.99749 26.9953 5.07718L23.5646 5.269V5.52158L26.1684 7.87259C25.8501 9.08105 25.5542 10.3941 24.7709 11.3075C23.2453 10.3937 21.7414 9.39916 20.0687 8.76465C19.6662 8.63473 19.0925 8.42348 18.7323 8.6995C19.2613 9.86529 20.0021 11.1193 19.8775 12.3917C19.1778 12.263 18.6279 11.8144 17.9705 11.6258C17.1844 11.4113 16.2516 10.9922 15.4888 11.2471C16.7605 13.0261 17.7985 14.8879 18.1576 17.0288C22.3763 14.9927 27.2962 13.8728 32.4032 14.7429C34.7971 15.1239 36.9984 16.099 39.1389 16.9023C39.2225 14.6574 40.6422 12.8535 41.6191 11.0511ZM48.8637 23.2583C51.0235 23.83 53.1901 26.1831 55.4771 24.6563C53.4853 21.3512 50.5208 18.299 51.3452 13.9768C51.4315 13.6817 51.2408 13.383 50.9665 13.3411C49.6744 13.8692 48.6738 15.1422 48.1625 16.3935C47.9522 17.1336 47.8276 17.9203 47.5314 18.6178C45.9835 17.8123 44.3318 17.0318 42.446 17.2204C41.7659 17.3052 40.791 17.3498 40.6655 18.0479C42.8056 19.1916 44.5655 21.1003 45.877 23.1328C46.7902 22.9838 47.9101 23.1111 48.8637 23.2583ZM26.2326 26.2454L26.2935 26.6284C27.1216 27.1801 27.3763 28.115 28.5226 28.03C29.5392 28.0904 30.302 27.138 30.8085 26.3757C29.4328 26.1857 27.7588 26.4797 26.2326 26.2454ZM27.3774 24.53C27.4187 24.6997 27.2724 24.954 27.5035 25.0398C28.1816 24.8925 29.4101 25.4005 29.7888 24.5954C29.5244 24.2991 29.0927 24.1647 28.6398 24.1647C28.187 24.1647 27.717 24.2967 27.3774 24.53Z"
    fill="#2C2C2C"/>
</svg>
