<svg width="151" height="36" viewBox="0 0 151 36" fill="none" xmlns="http://www.w3.org/2000/svg">
  <path fill-rule="evenodd" clip-rule="evenodd"
        d="M76.3869 10.4774L78.754 6.15075H79.809V0.0603015H86.638V6.0603L90.799 6.04523V10.5377C92.2161 6.70854 94.809 5.72864 99.6935 5.51759C105.136 5.29146 107.683 6.37688 109.372 8.0804C110.201 8.90955 110.713 10.5226 110.653 10.6583L113.035 6.22613H114.256L114.226 0.0904523H120.904L120.935 6.13568H125.261L125.246 10.6432C125.321 10.4171 125.894 8.92462 126.513 8.15578C129.483 4.47739 141.799 4.38694 144.483 8.98493C144.98 9.82915 145.176 10.8543 145.176 11.8492L145.191 22.3719H131.894L131.94 28.4022C132.121 29.955 133.508 30.558 135.377 30.5729C136.794 30.6032 138.302 29.8794 138.302 28.7188V25.7339H145.07L145.055 29.8495C145.055 33.6935 141.814 36.0151 134.849 35.8945C128.412 35.7889 125.186 33.0905 125.186 30.407V11.0503H120.935V34.8543L114.151 34.8846V10.99H110.684V34.8844H103.719V30.2864L101.096 35.1254H95.3823C92.8645 35.1254 90.724 33.0149 90.724 29.6531V23.0199C90.724 18.6026 94.4324 17.3214 97.0553 17.3214L103.854 17.2913V12.6633C103.553 11.2161 102.95 10.598 100.809 10.5075C99.121 10.4322 97.6284 10.9146 97.5984 12.5578L97.553 15.392H90.7538L90.7387 10.9598L86.4876 10.9749L86.4573 34.8844H79.7339V10.9447H76.3719L76.4022 15.4673H69.603V12.603C69.6181 11.6985 69.1206 10.6884 67.4322 10.6884H65.3668C63.8744 10.8392 63.3467 11.608 63.3618 14.0955C63.3769 15.4824 63.5879 16.5377 64.7186 16.8241L73.2663 19.0553C73.7337 19.1608 74.5025 19.7186 74.9849 20.2012C75.7837 21.0452 76.3415 22.1761 76.3415 23.3216V31.0706C76.3415 33.9045 72.1807 36 65.8943 36C59.834 36 56.3666 33.3467 56.3666 30.9045V25.2967L63.1958 25.2364L63.2261 29.1108C63.3317 30.0605 63.7236 30.3467 64.3869 30.5128C65.5176 30.8141 67.3719 30.8444 68.1859 30.5729C68.6683 30.4221 69.2261 29.8947 69.3467 29.5027C69.6633 28.4623 69.7387 26.6535 69.4824 25.7791C69.2864 25.1007 68.8492 24.4673 68.1558 24.2716L62.3518 22.6736C61.0251 22.3268 59.2462 21.5731 58.3417 21.0153C57.7688 20.6836 56.4724 19.7638 56.4724 17.5329V10.9296C56.4724 8.63819 58.9447 5.56281 66.5276 5.48744C71.3819 5.44221 73.8995 6.49749 75.196 7.98995C76.447 9.42211 76.3869 10.4774 76.3869 10.4774ZM132 12.7085L132.015 17.6382H138.362V12.7085C138.211 11.4422 137.925 10.6884 136.236 10.6131C136.176 10.6131 134.518 10.5528 133.869 10.6281C132.543 10.794 132 11.5025 132 12.7085ZM99.407 22.402C97.7791 22.4171 97.6583 24.3769 97.6583 26.201C97.6432 28.1005 98.0955 30.1508 99.3771 30.1508L103.703 30.1658L103.718 22.3869L99.407 22.402ZM24.2261 34.8543L24.3317 17.5628L21.4372 22.8693L13.9447 22.8543L7.07035 34.8543H0L18.995 0H31.5075V34.8543H24.2261ZM24.3467 17.4121V3.60302L16.8995 17.4271L24.3467 17.4121ZM42.1658 35.0201L42.1809 0.0603015H35.3367V34.9146L42.1658 35.0201ZM52.9749 0.0603015L46.1005 0.0301508L46.0553 34.8543H52.9447L52.9749 0.0603015ZM148.387 4.25126C149.683 4.25126 150.754 5.30653 150.754 6.60302C150.754 7.8995 149.684 8.96985 148.387 8.96985C147.09 8.96985 146.035 7.8995 146.035 6.60302C146.035 5.30653 147.09 4.25126 148.387 4.25126ZM148.387 4.59799C147.301 4.59799 146.412 5.48744 146.412 6.57287C146.412 7.67337 147.301 8.56281 148.387 8.56281C148.648 8.56306 148.907 8.51176 149.149 8.41184C149.39 8.31193 149.61 8.16536 149.794 7.98052C149.979 7.79569 150.126 7.57622 150.226 7.33468C150.326 7.09313 150.377 6.83426 150.377 6.57287C150.377 5.48744 149.487 4.59799 148.387 4.59799ZM149.502 5.96985C149.502 6.25628 149.291 6.558 149.005 6.61809C149.216 6.61809 149.442 6.96482 149.442 7.25126C149.442 7.43216 149.442 7.67337 149.457 7.7789L149.472 7.86935H148.96C148.945 7.86935 148.929 7.73367 148.929 7.65829V7.32663C148.929 7.07035 148.704 6.82915 148.462 6.82915H147.934V7.86935H147.407V5.21608H148.824C149.126 5.21608 149.502 5.50251 149.502 5.96985ZM147.92 5.62312V6.40704H148.583C148.809 6.40704 148.99 6.22613 148.99 5.98493C148.99 5.72864 148.839 5.62312 148.568 5.62312H147.92Z"
        fill="#2C2C2C"/>
</svg>
