<svg width="48" height="56" viewBox="0 0 48 56" fill="none" xmlns="http://www.w3.org/2000/svg">
  <path
    d="M12.4328 33.8416C11.781 34.293 8.34695 35.4835 8.34695 31.4602V18.426H4.24871V31.285C4.24871 40.6723 14.2999 37.6891 16.5184 36.1728V18.426H12.4327V33.8416H12.4328ZM0 5.24141V32.9269C0 45.9236 9.38722 49.8716 23.5243 56C37.6114 49.8715 47.0487 45.9488 47.0487 32.9269V5.24141C32.4729 -2.47895 11.7308 -0.97498 0 5.24141ZM44.8808 32.9269C44.8808 43.7805 38.2131 47.1643 23.5243 53.6437C8.798 47.1516 2.15564 43.7805 2.15564 32.9269V17.0851C14.9769 5.32906 31.1818 4.55212 44.8808 5.83051V32.9269ZM18.6114 19.4663V46.1367H22.7098V37.5264C25.7679 38.4414 31.6958 37.2006 31.6958 27.6879C31.6956 15.4809 21.5818 17.5488 18.6114 19.4663ZM22.7098 34.1676V21.5969C23.7626 21.0705 27.5224 20.0053 27.5224 27.7757C27.5224 36.2856 22.9603 34.2677 22.7098 34.1676ZM32.6232 23.339C32.6358 29.267 39.0901 28.6656 39.1653 32.1625C39.2407 35.1075 35.3555 35.0453 32.7986 32.7766V36.5489C37.3355 39.2434 43.0632 37.564 43.2261 32.3504C43.4391 25.8957 36.4457 26.5099 36.5333 23.1762C36.6087 20.6321 40.3685 20.6069 42.6119 22.9002V19.341C39.0401 16.5836 32.5982 18.1879 32.6232 23.339Z"
    fill="#2C2C2C"/>
</svg>
