<svg width="52" height="52" viewBox="0 0 52 52" fill="none" xmlns="http://www.w3.org/2000/svg">
<path d="M0 26C0 11.6406 11.6406 0 26 0C40.3594 0 52 11.6406 52 26C52 40.3594 40.3594 52 26 52C11.6406 52 0 40.3594 0 26Z" fill="#111F4B"/>
<path fill-rule="evenodd" clip-rule="evenodd" d="M27.1415 15.838L27.6751 15.428C27.3501 14.9766 26.933 14.6257 26.424 14.3754C25.9149 14.1251 25.3445 14 24.7128 14C23.6671 14 22.797 14.3386 22.1024 15.0158C21.4078 15.6929 21.0605 16.5275 21.0605 17.5194C21.0605 18.4623 21.3472 19.2669 21.9207 19.9333C22.6045 20.7226 23.5383 21.1172 24.722 21.1172C25.3445 21.1172 25.908 20.9997 26.4125 20.7648C26.9169 20.5299 27.3378 20.1974 27.6751 19.7675L27.1415 19.3621C26.5037 20.1053 25.711 20.4769 24.7634 20.4769C23.9017 20.4769 23.188 20.2005 22.6222 19.6477C22.0564 19.0949 21.7735 18.4054 21.7735 17.5793C21.7735 17.0327 21.9 16.5405 22.153 16.1029C22.406 15.6653 22.7625 15.3167 23.2225 15.0572C23.6824 14.7977 24.1823 14.668 24.722 14.668C25.2157 14.668 25.6688 14.767 26.0813 14.9651C26.4937 15.1632 26.8471 15.4541 27.1415 15.838ZM18.1957 20.9467L15.0402 14.1704H14.8746L11.6777 20.9467H12.4321L13.4901 18.7171H16.4064L17.4689 20.9467H18.1957ZM13.793 18.0629L14.9567 15.6076L16.1067 18.0629H13.793ZM19.1484 14.1704H19.8246V20.9467H19.1484V14.1704ZM29.0273 14.1704H30.3751C31.1479 14.1704 31.6692 14.2042 31.939 14.2718C32.3254 14.367 32.6413 14.5627 32.8866 14.8591C33.1319 15.1555 33.2546 15.5278 33.2546 15.9762C33.2546 16.4277 33.135 16.8 32.8958 17.0933C32.6566 17.3866 32.327 17.5839 31.9068 17.6853C31.6002 17.759 31.0267 17.7958 30.1865 17.7958H29.7035V20.9467H29.0273V14.1704ZM29.7051 17.1324V14.8291H30.901C31.358 14.8291 31.6868 14.869 31.8877 14.9489C32.0886 15.0287 32.2503 15.1631 32.373 15.3519C32.4957 15.5408 32.557 15.7489 32.557 15.9761C32.557 16.2095 32.4957 16.4207 32.373 16.6095C32.2503 16.7984 32.0817 16.9351 31.867 17.0195C31.6523 17.104 31.3135 17.1462 30.8504 17.1462L29.7051 17.1324ZM37.3742 14.1704L40.5297 20.9467H39.8029L38.7404 18.7171H35.8241L34.7661 20.9467H34.0117L37.2086 14.1704H37.3742ZM36.127 18.0629L37.2907 15.6076L38.4407 18.0629H36.127Z" fill="white"/>
<path d="M10.207 25.4045H42.0012V25.9933H10.207V25.4045Z" fill="white"/>
<path fill-rule="evenodd" clip-rule="evenodd" d="M38.1926 36.4988L38.1814 36.4652L39.2218 35.5242L40.609 34.0117C41.1571 33.4179 41.4815 32.6785 41.4815 32.0063C41.4592 30.8188 40.4859 29.7769 38.9981 29.7321C37.9465 29.6985 36.9956 30.1914 36.4475 31.2781L37.6556 31.9503C37.9577 31.4238 38.4835 31.0877 38.9421 31.1213C40.0608 31.1661 40.1615 32.3312 39.5574 33.0258L36.2461 36.7677L36.6376 37.7872H41.5263V36.3196H39.7028L38.1926 36.4988ZM32.4841 31.2108L31.4438 32.1295C30.8173 31.4685 30.079 31.1996 29.4189 31.222C27.8528 31.2556 27.0026 32.5104 27.0026 33.8884C27.0026 35.2776 27.864 36.4875 29.4189 36.4875C30.1125 36.4875 30.918 36.1963 31.5556 35.4456L32.6631 36.3083C31.7346 37.4398 30.6942 37.9664 29.4189 37.9664C26.8124 37.9664 25.4141 35.9946 25.4141 33.8884C25.4141 31.7822 26.8124 29.7432 29.4189 29.7432C30.56 29.7432 31.6116 30.1577 32.4841 31.2108ZM20.3685 29.7544C22.5723 29.7544 24.407 31.4461 24.407 33.8772C24.407 36.3531 22.5723 38 20.3685 38C18.1647 38 16.3301 36.3643 16.3301 33.8772C16.3301 31.4125 18.1647 29.7544 20.3685 29.7544ZM15.1012 31.2223L13.893 31.9169C13.591 31.3792 13.1547 31.2335 12.7855 31.2335C12.3269 31.2223 11.857 31.4464 11.8235 32.0402C11.8011 32.6228 12.5059 32.8804 12.9645 33.0149C14.1839 33.3286 15.4704 33.9223 15.4032 35.6924C15.3361 37.2385 13.9601 37.9555 12.696 37.9555C11.8011 37.9555 10.66 37.5858 10 36.0734L11.2306 35.3675C11.6109 36.1854 12.2709 36.5103 12.7296 36.5103C13.3449 36.5215 13.7811 36.1182 13.8035 35.6028C13.8483 34.8522 13.1323 34.5497 12.573 34.4041C11.7675 34.2024 10.2237 33.6534 10.2461 32.0514C10.2797 30.4605 11.5773 29.7659 12.7967 29.7659C13.7364 29.7659 14.5754 30.2028 15.1012 31.2223ZM20.37 36.5435C19.1842 36.5435 17.9648 35.6361 17.9648 33.8771C17.9648 32.1294 19.1842 31.222 20.3588 31.2108C21.5558 31.1996 22.7752 32.1182 22.7752 33.8771C22.7752 35.6697 21.567 36.5435 20.37 36.5435Z" fill="white"/>
</svg>
