<svg width="132" height="46" viewBox="0 0 132 46" fill="none" xmlns="http://www.w3.org/2000/svg">
  <path
    d="M126.162 15.2502C123.853 15.2461 121.758 17.1088 119.152 19.2774C116.761 21.2644 111.868 26.2878 107.405 29.1493C108.649 27.1951 111.647 22.9726 112.098 20.9911C112.572 18.914 111.05 18.1077 108.955 19.3922C106.673 20.7997 104.496 27.5641 101.272 27.5641C100.685 27.5641 100.275 27.2772 100.28 26.6212C100.294 24.6398 103.362 20.6905 108.869 18.5177C109.723 18.1761 110.051 17.6254 110.055 17.1512C110.055 17.0008 110.03 15.9977 108.339 15.9977C102.9 15.9977 95.5588 22.3454 94.5298 27.2116C93.4708 28.2775 91.5645 29.8572 89.1484 30.8876C91.876 27.0244 94.2237 23.9182 95.455 20.6932C96.8762 16.9352 94.8537 16.4432 92.7765 17.5419C90.7541 18.6106 89.3328 21.5773 88.7316 22.7075C88.144 23.828 87.6384 25.2628 85.8619 26.6909C84.0854 28.1189 82.2406 27.8798 83.5415 25.0921C84.7072 22.6022 87.3268 19.9908 89.5816 18.7883C90.1145 18.5013 90.5833 18.3318 90.5655 17.613C90.5382 16.4719 89.2181 15.6807 87.3363 16.4924C84.7809 17.5993 83.5538 18.3373 81.3879 18.3373C79.6688 18.3373 78.7778 17.8727 78.0439 17.5679C77.06 17.1498 76.3358 17.2946 75.9532 17.4176C75.6088 17.5351 75.0649 17.8685 74.6098 18.3673C74.2491 18.7636 73.9444 19.4127 73.8719 19.8295C73.3663 22.8769 70.6989 28.3431 68.7393 28.3431C68.0628 28.3431 67.318 28.1517 67.5093 26.5939C67.8236 24.0439 70.8983 20.5975 71.6089 19.9115C72.3195 19.22 73.6588 18.75 73.7544 17.9847C73.8364 17.3425 73.4455 16.625 72.1829 16.625C68.0382 16.625 62.4996 22.3699 61.9475 27.5299C61.3053 28.1312 60.5318 28.7188 59.6477 28.7188C57.7345 28.7188 57.1907 26.9287 57.3273 25.5075C62.3616 20.9651 71.911 10.8378 72.1993 3.62929C72.2676 1.90746 71.4286 1.04652 70.0183 1.04652C66.4653 1.04652 61.4856 6.23932 58.3891 10.2433C54.5792 15.1737 52.2342 21.1277 51.4061 25.6414C48.6184 28.0601 47.4869 28.2214 46.2734 28.2214C44.5871 28.2214 43.9981 27.0011 44.0514 26.0418C48.7523 21.77 56.9242 11.5921 57.0882 6.56187C57.1374 5.07235 56.2955 4.36994 54.7883 4.36994C51.5837 4.36994 47.0455 7.75212 43.7823 12.2057C40.5231 16.6606 38.409 21.8999 37.8105 26.6499C35.3712 28.8418 33.5469 29.2873 32.0437 29.2873C31.135 29.2873 30.4681 28.6478 30.3082 28.3799C32.4673 27.1337 37.3869 24.0071 37.3869 19.3472C37.3869 17.0323 35.8249 15.9992 34.2712 15.9992C30.3191 15.9992 24.1041 20.9241 24.1451 27.7213C24.1451 27.8415 24.1643 28.2597 24.1861 28.4114C22.396 29.0263 21.1634 29.6549 21.4476 30.9422C21.7072 32.1092 23.1558 32.0491 25.0416 31.3836C25.4762 32.1898 27.3237 33.5195 29.9338 33.5195C33.4676 33.5195 36.1651 31.8427 38.2969 30.0211C39.192 32.1188 41.399 33.2189 43.7084 33.2189C46.5098 33.2189 49.2839 31.3193 51.4703 29.5975C51.7245 31.2059 53.3602 33.7108 56.1903 33.7108C58.7731 33.7108 60.7464 32.2076 62.3056 30.5815C62.7156 32.2213 64.2187 33.5195 66.1783 33.5195C72.7145 33.5195 76.3795 24.268 77.224 20.9473C77.3334 20.5237 77.7379 20.428 78.0167 20.5278C79.2329 20.9514 79.8286 21.1619 81.3646 20.9869C78.8775 22.9411 76.6856 26.2755 76.6856 28.712C76.6856 31.1444 78.7942 32.2745 80.3343 32.2745C81.8785 32.2745 83.92 31.277 85.2634 30.0198C84.9081 30.7359 84.4298 31.8304 83.6645 32.6025C82.257 32.9892 78.13 34.4788 75.5063 36.0735C73.0192 37.5904 70.6141 40.0009 70.6141 42.775C70.6141 44.2591 71.8303 46 74.6905 46C79.4979 46 82.8623 42.857 87.3992 34.6032C91.1572 33.0275 93.4119 31.5558 94.8878 30.3054C95.5355 31.4341 96.7819 31.9589 98.0309 31.9589C99.8757 31.9589 100.983 31.4259 102.472 30.3559C102.267 30.8615 101.939 31.6213 101.434 32.2964C98.7469 33.4142 95.5205 34.8928 93.8684 35.8904C89.4613 38.5469 88.4843 40.9288 88.4843 42.805C88.4843 43.9529 89.4682 45.9481 92.4377 45.9481C98.8604 45.9481 102.837 37.9607 105.428 33.4443C107.327 32.4372 110.041 30.5691 112.83 28.4292C112.735 28.7708 112.69 29.1261 112.69 29.5292C112.69 31.5339 114.507 33.4197 117.486 33.4197C123.372 33.4197 125.203 29.0824 125.131 24.4006C125.103 22.8701 124.878 21.6511 124.857 21.1072C124.803 19.6778 125.278 18.9071 126.579 18.9071C127.891 18.9071 128.779 18.6748 128.779 17.5543C128.779 16.0033 127.672 15.2995 126.169 15.2995L126.162 15.2502ZM66.8616 6.99099C67.0297 6.99099 67.0994 7.14127 67.0939 7.37358C67.0433 9.2184 62.2974 16.6728 57.9067 21.0116C60.5496 13.2428 65.819 6.99099 66.8575 6.99099H66.8616ZM29.3298 25.6906C29.5211 22.3795 32.1448 19.8282 33.1807 19.8282C33.5633 19.8282 33.7409 20.0468 33.7409 20.5019C33.7409 21.6825 32.1558 24.1505 29.3366 25.6906H29.3298ZM51.6384 9.72948C51.8366 9.72948 51.9213 9.8839 51.9145 10.1353C51.8803 11.4991 48.464 17.7606 44.0788 22.0993C46.3827 15.0617 50.1325 9.73223 51.6357 9.73223L51.6384 9.72948ZM75.6279 41.7911C75.2917 41.7911 75.1223 41.5724 75.1223 41.2499C75.1223 39.237 79.5908 36.8579 81.9344 35.9984C80.9232 37.6355 77.2117 41.7925 75.6238 41.7925L75.6279 41.7911ZM93.5118 41.9018C93.1838 41.9018 93.0608 41.705 93.0608 41.3825C93.0608 39.606 97.1112 36.8538 99.4521 35.9956C98.2358 38.1001 94.8537 41.8991 93.5077 41.8991L93.5118 41.9018ZM117.921 29.1083C117.639 29.1083 117.21 29.0399 117.21 28.0929C117.21 27.4042 116.882 26.6417 115.682 26.6417C115.518 26.6417 115.341 26.6554 115.138 26.6895C117.708 24.6534 119.716 22.4123 121.588 20.8955C121.206 25.528 120.099 29.1083 117.913 29.1083"
    fill="#2C2C2C"/>
  <path
    d="M115.663 14.3923C115.577 15.2054 114.671 15.5703 114.592 16.2973C114.547 16.7209 114.846 17.001 115.374 16.9941C116.721 16.9805 120.334 14.8952 120.648 11.651C120.807 10.0153 119.785 8.59544 118.002 8.59544C116.198 8.59544 114.566 10.2872 114.414 11.7084C114.268 13.0982 115.747 13.6011 115.663 14.3923ZM21.7593 37.2708C20.6019 37.2107 20.0594 35.8291 20.0594 34.1551C20.0594 32.3144 21.2482 28.3269 21.7197 26.4397C22.198 24.5361 22.403 21.4572 20.6811 19.6917C27.2268 17.0584 36.9156 8.08985 38.1591 6.13161C39.4026 4.17063 39.6486 1.67671 37.9268 0.430435C36.2186 -0.815845 33.4172 0.810356 31.7637 3.19086C27.2132 9.75295 24.4664 12.9561 21.3644 15.6536C18.9456 17.7581 17.7704 17.7922 16.6088 17.9535C16.6088 17.9535 21.0774 10.6384 22.7446 8.44238C24.7466 5.81591 22.28 4.83479 19.8885 6.49376C19.4034 6.83129 15.6222 9.44549 11.0416 11.8096C2.88341 16.0185 0.919683 17.9589 0.919683 20.4843C0.919683 21.6048 1.69859 23.0151 3.33843 23.0151C6.53612 23.0151 9.6983 17.3003 11.2466 15.8777C11.8479 15.3175 13.2458 14.1012 13.7883 14.1012C13.966 14.1012 14.089 14.2105 14.089 14.5522C14.089 15.6454 11.9667 18.7474 8.6775 22.3004C3.90556 27.4522 0 29.5294 0 32.8227C0 34.9682 1.6125 36.1298 3.3562 36.1298C7.03217 36.1298 9.49195 31.2238 10.9623 28.7914C11.5499 27.8212 14.7927 21.7771 15.476 20.4693C16.1866 20.8478 16.6239 21.6363 16.3916 23.2379C15.9543 26.1213 13.3852 29.6141 13.3852 34.4844C13.3852 38.461 17.0612 39.7087 18.537 39.7114C19.9008 39.7114 21.7046 39.1853 22.1529 37.8202C22.2075 37.6152 22.1392 37.2694 21.7757 37.2462L21.7593 37.2708ZM130.44 14.6574C131.205 14.6574 131.697 15.1493 131.697 15.9187C131.697 16.684 131.205 17.1759 130.44 17.1759C129.668 17.1759 129.178 16.684 129.178 15.9187C129.178 15.1452 129.665 14.6506 130.438 14.6506L130.44 14.6574ZM130.438 16.8644C131.019 16.8644 131.387 16.4913 131.387 15.9078C131.387 15.3243 131.018 14.9567 130.438 14.9567C129.853 14.9567 129.486 15.3256 129.486 15.905C129.486 16.4844 129.855 16.8616 130.434 16.8616L130.438 16.8644ZM130.516 15.2628C130.712 15.2628 130.932 15.3585 130.932 15.6427C130.932 15.8313 130.809 15.9433 130.672 15.9979C130.76 16.1209 130.828 16.2959 130.932 16.2959H131.004C131.018 16.3095 131.031 16.3369 131.031 16.3915C131.031 16.479 130.967 16.5418 130.84 16.5418C130.594 16.5418 130.567 16.2494 130.403 16.0362H130.257V16.5146C130.229 16.5337 130.161 16.5418 130.106 16.5418C130.024 16.5418 129.956 16.5282 129.956 16.4052V15.2792C129.983 15.2656 130.038 15.26 130.104 15.26H130.513L130.516 15.2628ZM130.261 15.4951V15.8094H130.448C130.579 15.8094 130.653 15.7479 130.653 15.6454C130.653 15.5497 130.585 15.4951 130.475 15.4951H130.262H130.261Z"
    fill="#2C2C2C"/>
</svg>
