<svg width="142" height="36" viewBox="0 0 142 36" fill="none" xmlns="http://www.w3.org/2000/svg">
  <path d="M65.8134 14.2469V11.6997H53.266L52.4282 14.2469H65.8134Z" fill="#2C2C2C"/>
  <path
    d="M24.4782 11.6997C23.5163 12.1678 21.0125 12.5037 18.0658 12.5037C15.1574 12.5037 12.6753 12.1703 11.6861 11.7083L1.1881 11.6997C0.84107 12.5219 0.59493 13.3705 0.412842 14.2444L11.2004 14.2505C12.3182 13.8143 14.9592 13.5088 18.0446 13.5088C21.1154 13.5088 23.7493 13.8143 24.8742 14.2444H47.9398L47.1166 11.6997"
    fill="#2C2C2C"/>
  <path
    d="M1.54077 10.8983C1.94984 9.94636 2.43911 9.03448 2.99848 8.17578L12.8549 8.18541C13.603 8.65351 15.5383 8.99394 18.018 8.99394C20.5001 8.99394 22.6055 8.6535 23.349 8.17932H32.9941C33.4516 8.8835 33.8657 9.63733 34.2349 10.4484V8.18541L46.0182 8.18692L46.8958 10.9028H24.5398C23.5744 10.4362 21.064 10.0994 18.1193 10.0994C15.1681 10.0994 12.6547 10.4337 11.6933 10.9028"
    fill="#2C2C2C"/>
  <path d="M65.8229 10.8886V8.17578L54.4412 8.1773L53.5554 10.8886H65.8229Z" fill="#2C2C2C"/>
  <path d="M45.6845 7.3153L44.773 4.51783L34.1832 4.51074L34.1736 7.3153H45.6845Z" fill="#2C2C2C"/>
  <path
    d="M32.3622 7.31328H23.2382C22.3827 6.88773 20.3994 6.58985 18.0741 6.58985C15.7473 6.58985 13.7555 6.88773 12.9025 7.31328L3.51416 7.32442C4.26975 6.2945 5.13429 5.35728 6.0871 4.51074L14.1141 4.51328C14.7199 4.96821 16.2543 5.29041 18.0504 5.29041C19.8491 5.29041 21.3805 4.9682 21.9878 4.51581L29.8009 4.51074C30.7512 5.35221 31.6092 6.29196 32.3622 7.31328Z"
    fill="#2C2C2C"/>
  <path d="M65.8524 7.31328H54.7542L55.6691 4.51074L65.8524 4.51328V7.31328Z" fill="#2C2C2C"/>
  <path d="M65.8555 3.66405H55.9521L56.8964 0.775391H65.8555V3.66405Z" fill="#2C2C2C"/>
  <path
    d="M28.8056 3.65617L22.0199 3.65971C21.4121 3.20883 19.8873 2.8841 18.0911 2.8841C16.2833 2.8841 14.749 3.2063 14.1482 3.66123L7.17896 3.65363C10.1821 1.36682 13.9732 0 17.9862 0C22.0506 0 25.8003 1.36682 28.8056 3.65617Z"
    fill="#2C2C2C"/>
  <path d="M44.5611 3.66405L34.2437 3.65949V0.775391H43.6255L44.5611 3.66405Z" fill="#2C2C2C"/>
  <path d="M65.8419 17.8464V15.1533H52.1883L51.3005 17.8464H65.8419Z" fill="#2C2C2C"/>
  <path
    d="M11.0514 15.1533C12.0471 15.626 14.8112 15.9664 18.0691 15.9664C21.323 15.9664 24.0815 15.626 25.0817 15.1533H48.2397L49.1113 17.8378H25.2537C24.0745 17.4087 21.2993 17.0911 18.0817 17.0911C14.8586 17.0911 12.093 17.4072 10.9182 17.8378L0.0605469 17.8388C0.0655909 16.9188 0.137212 16.0409 0.277435 15.1533"
    fill="#2C2C2C"/>
  <path
    d="M25.4183 22.2765L65.8196 22.272V35.0906H58.1255V22.6109L54.0676 35.0906H46.2959L42.1507 22.5719V35.0906H34.1989L34.2014 25.5279C31.3636 31.7131 25.1777 35.9999 17.9572 35.9999C9.52973 35.9999 2.46008 30.1507 0.553955 22.273L10.7231 22.2765C11.7667 22.7482 14.659 23.0912 18.0697 23.0912C21.4764 23.0912 24.3707 22.7482 25.4183 22.2765Z"
    fill="#2C2C2C"/>
  <path
    d="M10.9182 21.418H0.463059C0.200267 20.5339 0.0968636 19.6063 0.0605469 18.6823L10.7694 18.6848C11.8564 19.1469 14.7194 19.4802 18.0767 19.4802C21.4355 19.4802 24.2959 19.1469 25.3829 18.6823L49.3787 18.6798L50.1847 21.1662L51.0069 18.6777H65.8215V21.4195L25.2195 21.418C24.0407 20.9863 21.2851 20.6839 18.0711 20.6839C14.8536 20.6839 12.0975 20.9863 10.9182 21.418Z"
    fill="#2C2C2C"/>
  <path
    d="M78.1288 16.7847C82.0995 16.7168 83.3922 13.6053 83.3922 9.75608C83.3922 4.62975 80.5752 1.93664 77.5947 1.98426C73.6906 2.05468 72.5346 5.25591 72.5346 8.62027C72.5346 12.01 73.9923 16.8551 78.1288 16.7847ZM78.2872 0.987265C82.792 0.94471 86.2345 3.93216 86.2345 8.85129C86.2345 12.0976 84.8242 17.7807 77.4545 17.7807C72.813 17.7807 69.6958 14.6509 69.6958 9.94302C69.6958 4.85975 72.7661 1.0359 78.2872 0.987265Z"
    fill="#2C2C2C"/>
  <path
    d="M98.4274 12.8525C98.5364 13.0931 98.6443 13.5794 98.833 13.5794C98.9929 13.5794 99.1018 13.2831 99.235 12.9862L100.709 9.51038C100.979 8.86345 101.221 8.35279 101.221 7.70586C101.221 6.27977 99.637 7.19165 99.637 6.2519C99.637 5.98188 99.8523 5.92565 100.144 5.92565C100.495 5.92565 100.873 6.03305 101.812 6.03305C102.482 6.03305 102.938 5.92565 103.124 5.92565C103.394 5.92565 103.661 5.8993 103.661 6.19718C103.661 6.70784 103.045 6.60044 102.72 7.30462L98.4541 16.8916C98.2423 17.3769 98.1888 17.7574 97.8393 17.7574C97.4625 17.7574 97.3041 17.1616 97.0343 16.5137L94.9168 11.4801C94.8094 11.2085 94.7267 11.1006 94.6202 11.1006C94.5405 11.1006 94.4618 11.2354 94.3236 11.5029L91.5368 16.8916C91.2937 17.3511 91.267 17.7574 90.9194 17.7574C90.5442 17.7574 90.3823 17.1616 90.1144 16.5137L86.3294 7.5174C86.0096 6.76002 84.9902 6.95203 84.9902 6.32941C84.9902 5.84662 85.3655 5.92565 85.7408 5.92565C86.0641 5.92565 86.4646 6.03305 87.8643 6.03305C88.9321 6.03305 89.5783 5.92565 89.955 5.92565C90.2743 5.92565 90.6763 5.84662 90.6763 6.30256C90.6763 6.92417 89.5238 6.682 89.5238 7.43735C89.5238 7.679 89.6827 8.21651 89.899 8.81228L91.4814 13.0931C91.56 13.3352 91.6957 13.8206 91.8844 13.8206C92.0165 13.8206 92.3131 13.2283 92.3943 13.0931L93.8167 10.399C93.9751 10.1046 94.0563 9.94302 94.0563 9.5651C94.0563 8.81228 93.4944 7.59744 92.9582 7.06044C92.6626 6.76003 92.0165 6.81828 92.0165 6.32941C92.0165 5.92565 92.365 5.92565 92.6626 5.92565C92.985 5.92565 93.5756 6.03305 94.9168 6.03305C96.3649 6.03305 96.7387 5.92565 97.0898 5.92565C97.5982 5.92565 97.8393 5.98188 97.8393 6.30256C97.8393 6.92417 96.4981 6.70784 96.4981 7.62429C96.4981 7.89431 96.66 8.26768 96.7387 8.5144"
    fill="#2C2C2C"/>
  <path
    d="M108.431 9.76395C108.887 9.76395 109.047 9.78928 109.047 9.03546C109.047 8.01211 108.298 6.42138 106.605 6.42138C104.998 6.42138 104.408 8.01212 104.408 9.25076C104.408 9.68239 104.46 9.76395 104.541 9.76395H108.431ZM105.024 10.7037C104.541 10.7037 104.433 10.5168 104.433 11.3785C104.433 13.6972 106.07 15.7956 108.404 15.7956C109.989 15.7956 111.301 14.371 111.731 14.371C111.836 14.371 111.999 14.3928 111.999 14.6942C111.999 15.3655 109.745 17.4932 106.983 17.4932C104.325 17.4932 101.694 15.7956 101.694 12.1055C101.694 9.00912 103.441 5.63867 106.902 5.63867C110.497 5.63867 111.945 8.71224 111.945 10.1155C111.945 10.7037 111.784 10.7037 111.626 10.7037"
    fill="#2C2C2C"/>
  <path
    d="M112.504 8.51158C112.504 7.21771 110.786 7.97153 110.786 7.21771C110.786 6.78507 111.187 6.76075 112.126 6.51657C114.383 6.00439 114.701 5.35645 115.026 5.35645C115.348 5.35645 115.348 5.54591 115.348 5.8975V7.43048H115.402C116.127 6.24655 117.466 5.57175 119.048 5.57175C121.945 5.57175 123.126 7.97153 123.126 10.5836V14.9485C123.126 16.6446 124.792 16.2418 124.792 16.8341C124.792 17.1588 124.63 17.2378 124.173 17.2378C123.315 17.2378 122.456 17.132 121.891 17.132C121.222 17.132 120.256 17.2378 119.934 17.2378C119.426 17.2378 119.048 17.3716 119.048 16.8888C119.048 16.4318 120.284 16.1887 120.284 15.1927V10.6125C120.284 8.85809 119.667 7.32258 117.656 7.32258C115.884 7.32258 115.348 8.34997 115.348 9.91081V14.8958C115.348 16.4318 117.52 16.1887 117.52 16.8341C117.52 17.0783 117.334 17.2378 116.69 17.2378C116.391 17.2378 115.425 17.132 114.059 17.132C113.119 17.132 112.183 17.2378 111.374 17.2378C111.111 17.2378 111.084 17.0783 111.084 16.9399C111.084 16.1603 112.504 16.8888 112.504 14.6542"
    fill="#2C2C2C"/>
  <path
    d="M131.311 8.54811C131.311 8.76595 131.231 8.82066 130.962 8.82066C130.425 8.82066 130.156 6.47609 127.638 6.47609C126.753 6.47609 125.946 6.88138 125.946 7.84899C125.946 9.11449 127.016 9.25076 129.189 10.1155C130.935 10.8147 132.034 11.6485 132.034 13.6972C132.034 16.5763 129.512 17.4932 127.447 17.4932C126.537 17.4932 124.796 17.3048 124.098 16.901C123.908 16.7916 123.825 16.7369 123.825 16.3599L123.908 13.5888C123.935 13.2109 124.124 13.1283 124.389 13.1283C124.846 13.1283 125.14 16.7662 128.042 16.7662C129.162 16.7662 129.971 16.0124 129.971 14.8817C129.971 13.8041 128.469 13.1866 126.081 12.1313C124.604 11.4895 123.985 10.7853 123.985 9.14134C123.985 6.58349 126.108 5.63867 128.361 5.63867C128.574 5.63867 131.098 5.85601 131.122 6.31195"
    fill="#2C2C2C"/>
  <path
    d="M78.8205 33.3685C78.8205 33.0002 75.1283 30.797 73.8245 28.3956C73.6817 28.1413 73.5208 27.9179 73.3957 27.9179C73.0921 27.9179 72.2013 28.3957 72.2013 29.5811C72.2013 31.338 74.4287 33.9632 76.8776 33.9632C77.5167 33.9632 78.8205 33.6593 78.8205 33.3685ZM73.2046 27.3754C73.2046 27.0714 72.8681 26.7847 72.8681 25.8251C72.8681 24.3079 74.0958 23.3291 75.5435 23.3291C76.5941 23.3291 77.5797 23.9223 77.8158 23.9223C78.0422 23.9223 78.1073 23.6817 78.3449 23.6817C78.5043 23.6817 78.5189 23.7633 78.5189 24.0014C78.5189 24.8175 78.6485 25.6488 78.7454 26.466C78.7575 26.6241 78.6944 26.7507 78.5043 26.7507C78.363 26.7507 78.2783 26.6241 78.2016 26.3677C77.8158 25.1058 76.9588 23.9345 75.5435 23.9345C74.7964 23.9345 74.4287 24.4041 74.4287 25.1215C74.4287 27.4058 79.7128 31.8998 80.1098 31.8998C80.1713 31.8998 80.7317 31.2276 80.7317 30.2655C80.7317 28.267 78.9159 29.0998 78.9159 28.459C78.9159 28.3349 78.9986 28.2366 79.22 28.2366C79.4889 28.2366 79.8581 28.3019 80.8578 28.3019C81.6376 28.3019 81.9256 28.2366 82.1798 28.2366C82.3382 28.2366 82.4325 28.2872 82.4325 28.4453C82.4325 28.8116 81.8918 28.5719 81.8106 29.1338C81.514 31.4525 80.824 32.1562 80.824 32.2671C80.824 32.9075 82.5455 33.7515 82.9591 33.7515C83.5644 33.7515 83.5452 33.641 83.7717 33.641C83.9013 33.641 83.9931 33.675 83.9931 33.8305C83.9931 34.0858 83.1821 34.9015 82.0174 34.9015C81.0515 34.9015 79.9534 34.1041 79.4268 33.6593C78.4548 34.5357 76.7843 34.9015 75.5132 34.9015C71.9128 34.9015 70.7532 32.4237 70.7532 31.0168C70.7532 28.2062 73.2046 27.5496 73.2046 27.3754Z"
    fill="#2C2C2C"/>
  <path
    d="M87.916 30.9497C87.7783 34.9154 90.318 33.5708 90.318 34.5202C90.318 34.6139 90.4088 34.8926 89.7646 34.8926C88.9304 34.8926 88.4477 34.7998 87.3849 34.7998C86.2515 34.7998 85.443 34.8926 85.098 34.8926C84.7504 34.8926 84.6586 34.7066 84.6586 34.5668C84.6586 33.7314 86.5516 34.3125 86.6465 31.8772L86.9673 22.5517C87.1075 18.7202 84.6379 19.8135 84.6379 18.7911C84.6379 18.6488 84.7504 18.4664 84.9128 18.4664C85.214 18.4664 85.559 18.5601 86.2989 18.5601C86.8316 18.5601 87.685 18.4664 88.4477 18.4664C88.7004 18.4664 88.9304 18.4421 89.2552 19.1412L94.3396 30.2749C94.4314 30.4816 94.4979 30.6477 94.6382 30.6477C94.7764 30.6477 94.9832 30.2282 95.0054 30.1604L100.363 18.9345C100.435 18.7678 100.503 18.4664 100.944 18.4664C101.5 18.4664 101.937 18.5601 102.282 18.5601C102.696 18.5601 103.135 18.4664 103.786 18.4664C104.406 18.4664 104.456 18.5601 104.456 18.7445C104.456 19.5815 102.19 18.6756 102.282 21.3429L102.673 31.6204C102.789 34.659 104.915 33.6387 104.915 34.4974C104.915 34.8926 104.617 34.8926 103.808 34.8926C103.135 34.8926 102.49 34.7998 101.822 34.7998C100.32 34.7998 99.7649 34.8926 99.2347 34.8926C98.7495 34.8926 98.171 34.9604 98.171 34.5435C98.171 33.7542 99.9722 34.5202 99.834 31.9466L99.488 24.9165C99.4637 24.2199 99.4431 23.8744 99.3048 23.8744C99.212 23.8744 98.9356 24.3375 98.5861 25.1034L94.2205 34.2664C94.0838 34.5668 93.993 34.9153 93.6203 34.9153C93.2702 34.9153 93.1552 34.5202 93.0453 34.2664L88.5612 24.266C88.4936 24.1308 88.4003 23.8744 88.3069 23.8744C88.1476 23.8744 88.1476 24.2903 88.1476 24.4519"
    fill="#2C2C2C"/>
  <path
    d="M110.541 26.5124C110.541 25.2661 108.884 25.9946 108.884 25.2661C108.884 24.8502 109.274 24.8234 110.181 24.5888C112.359 24.0964 112.664 23.4702 112.978 23.4702C113.289 23.4702 113.289 23.6541 113.289 23.9895V25.4754H113.338C114.037 24.3289 115.332 23.6784 116.859 23.6784C119.658 23.6784 120.799 25.9946 120.799 28.5175V32.7289C120.799 34.3642 122.399 33.9752 122.399 34.5502C122.399 34.8617 122.245 34.9392 121.807 34.9392C120.978 34.9392 120.15 34.8349 119.606 34.8349C118.955 34.8349 118.023 34.9392 117.714 34.9392C117.225 34.9392 116.859 35.0669 116.859 34.6003C116.859 34.1575 118.05 33.923 118.05 32.9614V28.5418C118.05 26.8518 117.457 25.3669 115.514 25.3669C113.805 25.3669 113.289 26.3594 113.289 27.8655V32.6767C113.289 34.1576 115.384 33.923 115.384 34.5502C115.384 34.7812 115.2 34.9392 114.582 34.9392C114.298 34.9392 113.368 34.8349 112.046 34.8349C111.138 34.8349 110.234 34.9392 109.454 34.9392C109.197 34.9392 109.169 34.7812 109.169 34.6525C109.169 33.8987 110.541 34.6003 110.541 32.4396"
    fill="#2C2C2C"/>
  <path
    d="M124.027 28.2578C123.953 29.9757 124.781 34.2129 127.657 34.2129C129.676 34.2129 130.271 32.7068 130.271 30.9377C130.271 28.8561 129.52 24.5165 126.723 24.5165C124.469 24.5165 124.11 26.3869 124.027 28.2578ZM126.852 35.1228C123.721 35.1228 121.288 32.9413 121.288 29.7411C121.288 26.3322 123.695 23.6816 127.164 23.6816C130.4 23.6816 132.887 25.8408 132.887 29.1185C132.887 32.6546 130.429 35.1228 126.852 35.1228Z"
    fill="#2C2C2C"/>
  <path
    d="M136.329 32.1316C136.329 34.5248 138.74 33.7426 138.74 34.498C138.74 34.6535 138.634 34.9402 138.348 34.9402C137.729 34.9402 136.255 34.8359 135.399 34.8359C134.182 34.8359 133.431 34.9402 132.784 34.9402C132.445 34.9402 132.344 34.8855 132.344 34.6788C132.344 33.8718 133.587 34.5502 133.587 32.6256V26.5134C133.587 25.2682 131.931 25.9956 131.931 25.2682C131.931 24.8512 132.318 24.8244 133.225 24.5913C135.399 24.0989 135.709 23.4702 136.018 23.4702C136.329 23.4702 136.329 23.6561 136.329 23.9905V25.9956C137.47 24.641 138.402 23.6805 139.046 23.6805C139.698 23.6805 141.098 24.8512 141.098 25.3452C141.098 26.3031 140.215 27.5286 139.748 27.5286C139.231 27.5286 139.101 26.4901 137.676 26.4901C136.255 26.4901 136.329 28.4638 136.329 28.6725"
    fill="#2C2C2C"/>
  <path fill-rule="evenodd" clip-rule="evenodd"
        d="M106.299 22.669C105.885 22.669 104.592 21.0058 104.592 20.6167C104.592 20.2267 105.885 18.5366 106.299 18.5366C106.742 18.5366 108.011 20.2267 108.011 20.6167C108.011 21.0058 106.742 22.669 106.299 22.669ZM104.904 26.5222C104.904 25.276 103.245 26.0045 103.245 25.276C103.245 24.8601 103.634 24.8332 104.54 24.5987C106.714 24.1062 107.027 23.4791 107.337 23.4791C107.647 23.4791 107.647 23.664 107.647 23.9993V32.7631C107.647 34.4288 109.538 33.7251 109.538 34.6102C109.538 35.0296 108.785 34.9491 108.475 34.9491C107.647 34.9491 106.842 34.8447 106.016 34.8447C105.395 34.8447 104.745 34.9491 104.099 34.9491C103.66 34.9491 103.374 35.0296 103.374 34.5843C103.374 33.9328 104.904 34.3756 104.904 33.179"
        fill="#2C2C2C"/>
</svg>
