<svg width="85" height="36" viewBox="0 0 85 36" fill="none" xmlns="http://www.w3.org/2000/svg">
  <path d="M10.7147 9.83746V14.5168H20.6053V24.3013H10.7147V35.8932H0.558105V0H22.1473L22.8387 9.83746H10.7147Z"
        fill="#2C2C2C"/>
  <path
    d="M51.8348 5.51752C55.2042 8.95688 56.8899 13.1087 56.8899 17.9721C56.8899 22.8708 55.2041 27.0396 51.8348 30.4794C48.4647 33.9186 44.4002 35.6382 39.6409 35.6382C34.8467 35.6382 30.764 33.9186 27.3947 30.4794C24.0245 27.0398 22.3398 22.8708 22.3398 17.9721C22.3398 13.1086 24.0245 8.95688 27.3947 5.51752C30.764 2.07815 34.8467 0.358398 39.6409 0.358398C44.4001 0.358398 48.4647 2.07815 51.8348 5.51752ZM36.7226 25.1635C36.7226 25.9633 37.0174 26.6578 37.6085 27.2481C38.1987 27.8392 38.9113 28.1342 39.745 28.1342C40.5789 28.1342 41.2824 27.8392 41.8556 27.2481C42.429 26.6578 42.7156 25.9633 42.7156 25.1635V10.6244C42.7156 9.79073 42.429 9.079 41.8556 8.4879C41.2825 7.89769 40.579 7.60199 39.745 7.60199C38.9113 7.60199 38.1989 7.89769 37.6085 8.4879C37.0173 9.079 36.7226 9.79073 36.7226 10.6244V25.1635Z"
    fill="#2C2C2C"/>
  <path
    d="M72.7354 36L67.6309 26.9067L62.6856 36H51.5188L62.154 17.3884L52.1037 0H63.5897L67.7906 7.7636L72.0445 0H83.1579L73.3205 17.2819L84.1683 35.9998H72.7354V36Z"
    fill="#2C2C2C"/>
</svg>
