<svg width="128" height="30" fill="none" xmlns="http://www.w3.org/2000/svg"><path fill-rule="evenodd" clip-rule="evenodd" d="M10.325 5.553c5.445 0 7.945 3.317 7.945 9.557 0 5.668-2.589 9.436-7.945 9.436-1.906 0-3.582-.572-4.884-1.523l-.293-.226-.06.06.054 5.383a.794.794 0 0 1-.458.73l-.125.045-3.576.959a.786.786 0 0 1-.97-.624L0 29.206V6.69a.79.79 0 0 1 .642-.78l.141-.013h2.655c.301 0 .571.174.702.44l.047.12.366 1.206c1.398-1.327 3.183-2.11 5.772-2.11ZM37 .143c.385 0 .704.28.77.65l.013.142v22.516a.79.79 0 0 1-.642.78l-.14.013h-2.656a.782.782 0 0 1-.702-.44l-.047-.12-.365-1.206c-1.399 1.327-3.184 2.11-5.773 2.11-5.445 0-7.945-3.315-7.945-9.556 0-5.667 2.589-9.436 7.945-9.436 1.907 0 3.582.572 4.884 1.523l.293.226.06-.06-.053-5.383a.794.794 0 0 1 .458-.73l.124-.045L36.8.17a.774.774 0 0 1 .2-.027ZM104.77 5.79c5.119 0 8.415 2.953 8.415 8.5l-.009.382c-.012.285-.035.632-.07 1.04a.788.788 0 0 1-.78.725h-11.322c.265 2.655 2.03 3.818 5.472 3.818l.66-.004c.963-.013 1.342-.08 2.666-.402.139-.034.308-.093.506-.176a.777.777 0 0 1 .958.3l.069.133.933 2.33a.797.797 0 0 1-.43 1.033l-.071.025c-2.448.74-4.417 1.091-5.908 1.055-6.972-.167-10.093-3.549-10.093-9.573 0-5.458 2.913-9.186 9.004-9.186Zm21.279.093c.345 0 .671.023.973.061l.344.057a.793.793 0 0 1 .621.929l-.025.098-1.059 3.258a.78.78 0 0 1-.933.522l-.246-.056a6.443 6.443 0 0 0-1.146-.097c-2.765 0-3.736 1.879-3.736 4.98v7.826a.789.789 0 0 1-.783.793h-3.495a.788.788 0 0 1-.783-.793V7.155c0-.438.35-.794.783-.794h2.587c.381 0 .708.28.772.66l.389 2.323h.088c1.236-2.267 3.237-3.46 5.649-3.46Zm-53.708.998.134.023 3.643.988c.288.078.5.32.548.61l.01.127v14.862a.76.76 0 0 1-.618.751l-.135.012H72.28a.756.756 0 0 1-.742-.626l-.012-.137V7.642a.756.756 0 0 1 .682-.76h.132ZM68.99 0c.082 0 .163.013.241.038.366.12.585.487.536.86l-.031.14-1.06 3.326a.786.786 0 0 1-.603.537l-.143.013h-8.028v4.552h7.4a.79.79 0 0 1 .771.659l.012.143-.031 2.995a.79.79 0 0 1-.643.773l-.14.012h-7.369v9.403a.79.79 0 0 1-.642.78l-.14.013h-3.54a.786.786 0 0 1-.77-.65l-.013-.143V2.115c0-1.1.828-2.003 1.887-2.105l.2-.01H68.99ZM49.602.11c.522 0 1.061.036 1.581.098.25.03.554.08.913.149l.095.024c.351.117.56.471.51.83l-.03.134-.524 1.615a.754.754 0 0 1-.775.523l-.096-.007c-.22-.014-.44-.02-.662-.02-2.064 0-2.865.68-2.94 1.756l-.006.173v.573h3.74c.384 0 .704.28.77.65l.013.143v2.092a.79.79 0 0 1-.642.78l-.141.013h-3.74V23.45a.79.79 0 0 1-.642.78l-.14.013h-3.553a.786.786 0 0 1-.77-.65l-.013-.143V9.636h-1.895a.786.786 0 0 1-.77-.65l-.013-.143V6.75a.79.79 0 0 1 .642-.78l.141-.013h1.865v-.573c0-2.803 2.083-5.276 7.082-5.276ZM88.828 2.49c.069 0 .137.01.203.027l3.554.97c.342.093.58.407.58.766v19.193c0 .438-.351.794-.784.794h-3.553a.788.788 0 0 1-.783-.794V3.284c0-.438.35-.793.783-.793Zm-8.238 0c.069 0 .137.01.204.027l3.553.97c.342.093.58.407.58.766v19.193c0 .438-.35.794-.783.794H80.59a.788.788 0 0 1-.783-.794V3.284c0-.438.35-.793.783-.793Zm-51.644 7.537c-3.006 0-4.136 1.477-4.136 5.215 0 3.859.922 5.366 4.136 5.366 1.897 0 3.035-.742 3.587-1.455l.102-.142v-7.477c-.684-.874-1.993-1.507-3.69-1.507ZM8.837 9.533c-1.897 0-3.035.742-3.587 1.455l-.102.143v7.476c.684.874 1.993 1.507 3.69 1.507 3.005 0 4.135-1.477 4.135-5.215 0-3.859-.922-5.366-4.136-5.366Zm96.072.344c-2.618 0-3.677 1.104-3.913 3.43h7.68c-.059-2.326-1.472-3.43-3.767-3.43ZM72.337.637l.134.024 3.639.987c.288.078.5.32.548.61l.01.128v2.078a.754.754 0 0 1-.814.76l-.134-.023-3.639-.988a.76.76 0 0 1-.548-.61l-.01-.127V1.398a.756.756 0 0 1 .682-.76h.132Z" fill="#E8501F"/></svg>