<svg width="202" height="30" viewBox="0 0 202 30" fill="none" xmlns="http://www.w3.org/2000/svg">
  <path
    d="M17.7129 0.249512H28.6763V16.0227C28.6763 19.3331 28.318 21.8533 27.6042 23.5804C26.886 25.3105 25.4482 26.7762 23.2849 27.9746C21.1201 29.1774 18.3503 29.7766 14.9709 29.7766C11.4021 29.7766 8.63519 29.3786 6.67162 28.5885C4.70951 27.7925 3.19387 26.6322 2.12469 25.1019C1.26407 23.8727 0.686888 22.4099 0.394627 20.7136C0.31532 20.2671 0.21986 19.4623 0.168457 18.797L10.7016 18.261C10.7177 19.5504 10.8543 20.5065 11.1084 21.1307C11.3654 21.7534 11.7972 22.2586 12.4081 22.6419C12.8223 22.896 13.4156 23.0194 14.1837 23.0194C15.3998 23.0194 16.2912 22.6522 16.8596 21.9061C17.4294 21.1586 17.7129 19.9029 17.7129 18.1347"
    fill="#2C2C2C"/>
  <path
    d="M105.348 8.70613C106.687 7.42987 108.461 6.78514 110.672 6.78514C112.976 6.78514 114.805 7.41959 116.15 8.67528C117.497 9.93685 118.169 11.9313 118.169 14.66C118.169 17.9057 117.524 20.1542 116.236 21.4055C114.944 22.6612 113.121 23.2854 110.769 23.2854C108.478 23.2854 106.668 22.6465 105.335 21.3673C104.006 20.0881 103.343 17.9835 103.343 15.0551C103.343 12.1002 104.007 9.98531 105.348 8.70613ZM94.8603 23.4895C96.4861 25.7453 98.6068 27.3976 101.22 28.4418C103.834 29.4845 107.138 30 111.131 30C115.059 30 118.337 29.4008 120.965 28.1906C123.596 26.9863 125.611 25.2974 127.003 23.1267C128.395 20.9517 129.09 18.1701 129.09 14.7834C129.09 10.1087 127.495 6.47526 124.311 3.88751C121.126 1.29388 116.585 0 110.695 0C104.951 0 100.469 1.31444 97.2483 3.958C94.0305 6.59569 92.4209 10.282 92.4209 15.0198C92.4209 18.4095 93.2345 21.2337 94.8603 23.4895Z"
    fill="#2C2C2C"/>
  <path
    d="M52.933 0.498535H40.9533L27.6797 29.5469H38.8429L46.8 8.02827L50.6963 18.4718H44.9392L42.5761 24.7459H52.9697L54.7395 29.5469H66.189"
    fill="#2C2C2C"/>
  <path
    d="M142.775 23.2713H148.374C150.261 23.2713 151.594 22.9967 152.368 22.4474C153.144 21.8967 153.531 21.1609 153.531 20.2371C153.531 19.3765 153.15 18.6862 152.382 18.1649C151.615 17.6435 150.268 17.3821 148.347 17.3821H142.775V23.2713ZM142.775 11.8556H147.55C149.261 11.8556 150.452 11.6162 151.124 11.1359C151.793 10.6527 152.127 9.95954 152.127 9.04898C152.127 8.20745 151.793 7.54802 151.124 7.07218C150.452 6.59634 149.284 6.35989 147.619 6.35989H142.775V11.8556ZM131.744 0.498535H152.241C155.657 0.498535 158.278 1.18879 160.108 2.57519C161.937 3.95572 162.853 5.66963 162.853 7.71398C162.853 9.42348 162.201 10.8936 160.894 12.1199C160.027 12.9335 158.754 13.5827 157.078 14.0541C159.625 14.5593 161.499 15.4185 162.696 16.6389C163.897 17.8608 164.496 19.3912 164.496 21.2417C164.496 22.7426 164.068 24.0967 163.217 25.2981C162.361 26.5009 161.193 27.4526 159.71 28.1502C158.791 28.5878 157.406 28.9006 155.554 29.1018C153.088 29.3633 151.45 29.4969 150.646 29.4969H131.744"
    fill="#2C2C2C"/>
  <path
    d="M165.186 19.9075L175.581 19.3729C175.805 20.7652 176.264 21.8182 176.957 22.5481C178.082 23.7215 179.691 24.3105 181.783 24.3105C183.343 24.3105 184.546 24.0109 185.392 23.4087C186.238 22.8051 186.661 22.1075 186.661 21.3144C186.661 20.564 186.257 19.8899 185.451 19.295C184.641 18.6988 182.776 18.1392 179.851 17.6105C175.063 16.7249 171.645 15.5515 169.607 14.0858C167.548 12.623 166.52 10.7578 166.52 8.48436C166.52 6.99368 167.047 5.58672 168.096 4.26201C169.152 2.93288 170.735 1.89309 172.847 1.13527C174.96 0.374508 177.858 0 181.537 0C186.054 0 189.495 0.684393 191.866 2.06198C194.235 3.44398 195.646 5.63225 196.097 8.64297L185.806 9.13644C185.53 7.82934 184.956 6.87326 184.079 6.27405C183.199 5.67925 181.991 5.37965 180.447 5.37965C179.174 5.37965 178.216 5.60141 177.571 6.04494C176.927 6.48994 176.608 7.02453 176.608 7.65898C176.608 8.1216 176.875 8.53723 177.408 8.90733C177.93 9.29212 179.155 9.64753 181.083 9.97944C185.852 10.8254 189.275 11.6816 191.34 12.5452C193.405 13.4117 194.907 14.4838 195.849 15.763C196.787 17.0466 197.26 18.477 197.26 20.0602C197.26 21.921 196.633 23.6408 195.377 25.2093C194.123 26.7807 192.371 27.9733 190.119 28.7869C187.869 29.5946 185.031 30 181.609 30C175.596 30 171.431 29.0513 169.116 27.1508C166.802 25.2519 165.492 22.8404 165.186 19.9075Z"
    fill="#2C2C2C"/>
  <path
    d="M89.7741 20.9164C88.3113 22.0723 85.8073 23.2677 82.3941 23.2854C80.106 23.2986 78.2951 22.6465 76.9631 21.3673C75.6325 20.0881 74.9687 17.9835 74.9687 15.0551C74.9687 12.1002 75.6384 9.98531 76.9763 8.70613C78.1439 7.58849 80.2602 6.72933 82.2047 6.71464C85.1361 6.68674 86.825 7.04656 89.7036 9.11588C90.6729 7.23307 92.2193 4.47643 93.4016 2.83743C93.0932 2.6186 92.776 2.41152 92.4426 2.21766C89.896 0.737263 86.3932 0 81.9374 0C76.2449 0 71.8434 1.2836 68.7313 3.864C65.6193 6.44294 64.0625 10.1307 64.0625 14.9317C64.0625 18.5299 64.9481 21.4833 66.7178 23.792C68.489 26.1008 70.5921 27.7119 73.0286 28.6283C75.4665 29.5447 78.6109 30 82.4587 30C86.9425 30 90.3189 29.2378 93.4589 27.2331C93.4589 27.2331 91.3822 24.2605 89.7858 20.9238"
    fill="#2C2C2C"/>
  <path
    d="M198.888 2.21152H199.317C199.682 2.21152 200.01 2.1939 200.01 1.77386C200.01 1.42433 199.708 1.36852 199.433 1.36852H198.888V2.21152ZM198.477 1.0366H199.498C200.125 1.0366 200.423 1.28333 200.423 1.79148C200.423 2.27026 200.121 2.46853 199.727 2.51112L200.482 3.67722H200.041L199.322 2.54196H198.888V3.67722H198.477V1.0366ZM199.358 4.28671C200.404 4.28671 201.213 3.45546 201.213 2.34517C201.213 1.26571 200.404 0.434456 199.358 0.434456C198.301 0.434456 197.493 1.26571 197.493 2.34517C197.493 3.45546 198.301 4.28671 199.358 4.28671ZM199.358 0.0996094C200.592 0.0996094 201.625 1.07185 201.625 2.34517C201.625 3.64492 200.592 4.61863 199.358 4.61863C198.12 4.61863 197.083 3.64492 197.083 2.34517C197.083 1.07185 198.12 0.0996094 199.358 0.0996094Z"
    fill="#2C2C2C"/>
</svg>
