<svg width="217" height="30" viewBox="0 0 217 30" fill="none" xmlns="http://www.w3.org/2000/svg">
  <path
    d="M112.065 0C103.873 0 97.4797 1.96207 97.4797 9.22765C97.4797 13.1533 99.4917 16.2942 104.365 17.1201L115.739 19.0056C117.078 19.2401 117.539 20.0647 117.539 20.8892C117.539 22.2246 116.69 23.1676 113.582 23.1676C112.029 23.1676 110.933 22.9709 110.194 22.5777C109.487 22.1455 109.167 21.5167 109.134 20.5754H97.1254C97.1602 28.8218 105.531 30 113.195 30C124.391 30 129.407 26.7798 129.407 19.945C129.407 15.1949 126.298 12.6038 121.282 11.7793L109.381 9.81656C108.392 9.66025 108.075 9.14756 108.075 8.36359C108.075 7.1845 109.099 6.36126 112.065 6.36126C113.161 6.36126 114.29 6.51748 115.174 6.9483C116.09 7.34053 116.691 8.04903 116.691 9.18808H128.276C127.922 3.25789 123.295 0 112.065 0ZM162.959 0C156.92 0 145.724 0.47122 145.724 15.0009C145.724 29.5278 156.92 30 162.959 30C169.032 30 172.849 28.8611 175.284 26.8189C177.756 24.7777 178.887 21.7931 179.523 18.1019L168.292 18.101C167.48 21.4776 165.607 22.9301 162.463 22.9301C158.826 22.9301 156.318 20.6938 156.318 15C156.318 9.30474 158.895 7.067 162.959 7.067C166.807 7.067 168.01 9.97168 168.292 11.9762H179.523C178.215 0.862205 168.962 0 162.959 0ZM199.196 0C193.155 0 181.959 0.470738 181.959 15.0009C181.959 29.5273 193.155 30 199.196 30C205.236 30 216.431 29.5278 216.431 15.0009C216.431 0.47122 205.236 0 199.196 0ZM0 0.981843V29.0182H9.95885V20.2993H20.6272C27.6902 20.2993 30.2327 16.139 30.2327 10.7598C30.2327 4.51553 27.6176 0.981843 20.5547 0.981843H0ZM33.5175 0.981843V29.0182H60.3222V22.1857H43.4773V18.4167H59.1237V11.5824H43.4773V7.81236H60.3222V0.981843H33.5175ZM64.4908 0.981843V29.0182H74.4506V20.2993H85.1162C92.1811 20.2993 94.7245 16.139 94.7245 10.7598C94.7245 4.51553 92.1099 0.981843 85.0455 0.981843H64.4908ZM132.655 0.981843V29.0182H142.614V0.981843H132.655ZM199.196 7.06797C203.257 7.06797 205.836 9.3057 205.836 15.0009C205.836 20.6947 203.257 22.9311 199.196 22.9311C195.134 22.9306 192.555 20.6942 192.555 15.0009C192.555 9.30522 195.134 7.06797 199.196 7.06797ZM9.95885 7.57679H16.387C18.8952 7.57679 19.8489 8.44205 19.8489 10.5619C19.8489 12.6031 18.8947 13.4679 16.387 13.4679H9.95885V7.57679ZM74.4506 7.57679H80.8788C83.3865 7.57679 84.3407 8.44205 84.3407 10.5619C84.3407 12.6031 83.3865 13.4679 80.8788 13.4679H74.4506V7.57679Z"
    fill="#2c2c2c"/>
</svg>
