<svg width="144" height="36" viewBox="0 0 144 36" fill="none" xmlns="http://www.w3.org/2000/svg">
  <path fill-rule="evenodd" clip-rule="evenodd"
        d="M40.9664 7.5552V28.4458H45.0578V24.0097V7.5542H40.9664V7.5552ZM0 7.55516L0.000517601 7.55736L0.000418418 7.55736L0 7.55516ZM0.000517601 7.55736C0.0496485 7.76611 3.58135 22.7719 4.14831 25.2219C4.81469 28.1015 6.0154 29.1613 9.47725 28.4465L11.7111 19.0229C12.2772 16.6821 12.657 15.0133 13.0209 12.6322H13.0849C13.3089 14.7385 13.6161 16.2677 14.002 18.1889L14.002 18.1889L14.0022 18.1899C14.0568 18.4616 14.113 18.741 14.1707 19.0311C14.1707 19.0311 15.08 23.3092 15.5456 25.5562C16.0125 27.8024 17.3119 29.2181 20.7028 28.4473L26.0253 7.55676H21.728L19.9109 16.5887C19.7744 17.3231 19.6415 18.0126 19.5133 18.6775L19.5133 18.6778L19.5132 18.678L19.5132 18.6781C19.1825 20.3932 18.8835 21.9441 18.6372 23.6772H18.5766C18.2884 21.4678 17.9274 19.6099 17.4801 17.3071L17.3742 16.7617L15.4821 7.55676H11.0047L8.98086 16.5298C8.83295 17.2331 8.68752 17.9016 8.54726 18.5462L8.54724 18.5463C8.1438 20.4005 7.78325 22.0576 7.5302 23.7818H7.46844C7.1192 21.5936 6.65405 18.8263 6.15035 16.1869C6.15035 16.1869 4.94795 9.76897 4.52608 7.55676L0.000517601 7.55736ZM98.5904 7.55521V22.9665C98.5904 25.0913 98.976 26.58 99.8011 27.4895C100.522 28.2849 101.709 28.7999 103.132 28.7999C104.342 28.7999 105.532 28.5621 106.093 28.3454L106.04 25.0302C105.623 25.1367 105.143 25.2219 104.486 25.2219C103.092 25.2219 102.625 24.2964 102.625 22.3885V16.4922H106.188V12.4953H102.625V7.55521H98.5904ZM31.8229 12.3981C29.2802 12.3981 27.2618 13.1384 26.1615 13.7976L26.9667 16.6564C27.9736 15.9982 29.5769 15.4533 31.095 15.4533C33.6084 15.4466 34.0193 16.9269 34.0193 17.8762V18.1008C28.5426 18.0922 25.0833 20.0572 25.0833 24.0626C25.0833 26.5082 26.8443 28.8 29.9064 28.8C31.7914 28.8 33.3679 28.0205 34.3127 26.7715H34.4054C34.4054 26.7715 35.031 29.4839 38.4779 28.4467C38.2968 27.3177 38.238 26.1141 38.238 24.6644V19.0836C38.238 15.5267 36.7733 12.3982 31.8229 12.3982L31.8229 12.3981ZM51.8889 14.8848C52.5865 13.7434 53.7371 12.3981 56.2973 12.3981L56.2967 12.3982C58.2885 12.3982 59.8175 13.514 60.4693 15.2054H60.5299C61.0901 14.3533 61.7309 13.7061 62.4468 13.2506C63.2985 12.7085 64.2405 12.3982 65.4339 12.3982C68.1288 12.3982 70.5161 14.3283 70.5161 19.2032V28.4467H66.4044V19.8473C66.4044 17.3767 65.5969 15.9471 63.9143 15.9471C62.6803 15.9471 61.7839 16.8048 61.4461 17.8589C61.3292 18.2231 61.2747 18.7193 61.2747 19.1312V28.4466H57.1659V19.5018C57.1659 17.4022 56.3893 15.9473 54.7296 15.9473C53.402 15.9473 52.5705 17.0313 52.2297 17.958C52.0845 18.3549 52.0369 18.8112 52.0369 19.2427V28.4468H47.9237V12.7524H51.8283V14.8848H51.8889ZM78.8842 12.3981C76.3421 12.3981 74.324 13.1384 73.2229 13.7976L74.0291 16.6564C75.0351 15.9982 76.6393 15.4533 78.1566 15.4533C80.6683 15.4466 81.0802 16.9269 81.0802 17.8762V18.1008C75.6043 18.0922 72.1445 20.0572 72.1445 24.0626C72.1445 26.5082 73.9065 28.8 76.9702 28.8C78.8537 28.8 80.4307 28.0205 81.3738 26.7715H81.4668C81.4668 26.7715 82.0924 29.4839 85.5398 28.4467C85.3584 27.3177 85.3002 26.1141 85.3002 24.6644V19.0836C85.3002 15.5267 83.8351 12.3982 78.8842 12.3982L78.8842 12.3981ZM91.8461 15.7122C92.5983 13.4523 94.3903 12.3981 95.9653 12.3981L95.9655 12.398C96.3608 12.398 96.5781 12.4287 96.8957 12.4952V16.604L96.8593 16.5985C96.4943 16.5437 96.151 16.4923 95.6774 16.4923C93.8951 16.4923 92.6533 17.5685 92.3411 19.2519C92.2749 19.5985 92.2496 19.9765 92.2496 20.4101V28.4466H88.0286V12.7522H91.7313V15.7122H91.8461ZM34.1513 20.882V22.8399C34.1513 23.1295 34.127 23.4283 34.0496 23.6896C33.733 24.7769 32.6466 25.6958 31.2884 25.6958C30.1562 25.6958 29.2567 25.0295 29.2567 23.62C29.2567 21.4639 31.5457 20.868 34.1514 20.882H34.1513ZM81.2127 22.8399V20.882H81.2128C78.6071 20.868 76.3181 21.4639 76.3181 23.62C76.3181 25.0295 77.2177 25.6958 78.3502 25.6958C79.7083 25.6958 80.7944 24.7769 81.111 23.6896C81.1879 23.4283 81.2127 23.1295 81.2127 22.8399Z"
        fill="#2C2C2C"/>
  <path fill-rule="evenodd" clip-rule="evenodd"
        d="M125.939 1.69588C125.939 0.764808 126.989 0 128.31 0L128.311 7.99716e-05C129.634 7.99716e-05 130.687 0.764888 130.687 1.69588L129.881 11.1139C129.79 11.6806 129.122 12.1179 128.31 12.119C127.5 12.119 126.83 11.6813 126.741 11.1139L125.939 1.69588ZM113.277 9.00062C113.773 8.10984 114.552 7.57152 115.237 7.55465L115.238 7.55477C115.466 7.54915 115.685 7.60155 115.878 7.718L123.344 13.1477C123.774 13.5115 123.806 14.3319 123.398 15.0614V15.0618C122.991 15.7878 122.29 16.1681 121.774 15.9689L113.507 11.9774C112.732 11.5123 112.614 10.1868 113.277 9.00062ZM141.382 7.55477C141.153 7.54915 140.935 7.60155 140.742 7.718L133.275 13.1477C132.848 13.5115 132.816 14.3319 133.222 15.0614L133.223 15.0618C133.63 15.7878 134.329 16.1681 134.846 15.9689L143.116 11.9776C143.894 11.5125 144.006 10.187 143.348 9.00082C142.85 8.11002 142.07 7.57173 141.384 7.55485L141.382 7.55477ZM121.775 20.034C121.872 19.9961 121.975 19.979 122.082 19.9805L122.082 19.9804C122.546 19.9869 123.072 20.3489 123.402 20.9425L123.399 20.9409C123.807 21.6698 123.775 22.4899 123.346 22.8582L115.879 28.2837C115.103 28.748 113.939 28.1852 113.278 27.0013C112.616 25.8139 112.733 24.4879 113.508 24.0208L121.775 20.034ZM134.54 19.9805C134.077 19.9871 133.552 20.349 133.221 20.9427L133.224 20.9411C132.818 21.6699 132.85 22.49 133.277 22.8584L140.744 28.2838C141.518 28.7481 142.684 28.1853 143.347 27.0015C144.005 25.814 143.894 24.488 143.115 24.0209L134.848 20.0341C134.751 19.9963 134.647 19.9791 134.54 19.9806L134.54 19.9805ZM126.742 24.8864C126.831 24.3205 127.499 23.8847 128.308 23.8837H128.311C129.123 23.8848 129.791 24.3205 129.882 24.8864L130.686 34.3041C130.686 35.2367 129.634 36 128.311 36C126.99 36 125.94 35.2367 125.94 34.3041L126.742 24.8864Z"
        fill="#2C2C2C"/>
</svg>
