<svg width="112" height="36" viewBox="0 0 112 36" fill="none" xmlns="http://www.w3.org/2000/svg">
  <path
    d="M0.0981445 28.3995V0H11.1667C13.0394 0 14.5923 0.19454 15.8265 0.583138C17.0616 0.971255 18.1292 1.78312 19.0311 3.0173C19.933 4.25195 20.3837 5.70137 20.3837 7.36603C20.3837 8.93391 19.9258 10.2967 19.0104 11.4543C18.0955 12.6114 16.8324 13.3505 15.2236 13.6703C17.2215 14.017 18.7326 14.8289 19.7597 16.1049C20.7858 17.3815 21.2996 18.8916 21.2996 20.64C21.2996 22.832 20.5817 24.6729 19.1457 26.1642C17.7108 27.656 15.501 28.4004 12.5188 28.4004H0.0981445V28.3995ZM4.94479 11.9223H11.1874C12.4635 11.9223 13.4728 11.5405 14.2143 10.7777C14.9569 10.015 15.3276 9.04418 15.3276 7.8649C15.3276 6.56139 14.9039 5.60025 14.0588 4.9834C13.2123 4.36607 12.2208 4.05789 11.0844 4.05789H4.94479V11.9223ZM4.94479 24.135H11.5616C12.9628 24.135 14.0684 23.7676 14.8803 23.0328C15.6917 22.2975 16.0976 21.306 16.0976 20.0564C16.0976 18.8641 15.6849 17.8866 14.8601 17.1229C14.0342 16.3601 12.9421 15.9788 11.5818 15.9788H4.94479V24.135ZM28.7283 4.93043H23.9847V0H28.7283V4.93043ZM28.7283 28.3999H23.9847V7.38626H28.7283V28.3999ZM40.9414 28.8372C37.8346 28.8372 35.4625 27.721 33.8263 25.4871C32.19 23.2538 31.3704 20.6954 31.3704 17.81C31.3704 14.7032 32.2762 12.1159 34.0853 10.0496C35.8964 7.9824 38.2858 6.94951 41.2544 6.94951C44.0699 6.94951 46.3828 7.95591 48.1929 9.9668C50.0029 11.9782 50.9073 14.5929 50.9073 17.8105C50.9073 21.1254 49.9688 23.7921 48.0888 25.8102C46.2089 27.8279 43.8263 28.8372 40.9414 28.8372ZM41.108 24.9257C44.2987 24.9257 45.8935 22.5474 45.8935 17.7893C45.8935 15.6393 45.5117 13.9433 44.7489 12.7024C43.9862 11.461 42.8141 10.8403 41.2323 10.8403C39.596 10.8403 38.3825 11.4827 37.5909 12.7645C36.8002 14.0478 36.4044 15.751 36.4044 17.8722C36.4044 20.1609 36.8238 21.9084 37.6641 23.1151C38.5044 24.3228 39.6514 24.9257 41.108 24.9257ZM87.2804 21.7008L91.5671 22.284C91.0123 24.1831 89.9294 25.7515 88.322 26.9852C86.7113 28.2203 84.6941 28.8372 82.2672 28.8372C79.3544 28.8372 77.0098 27.8597 75.2344 25.9037C73.459 23.9477 72.572 21.2988 72.572 17.9555C72.572 14.7797 73.4657 12.151 75.2556 10.0703C77.045 7.98962 79.4719 6.94951 82.5378 6.94951C85.5339 6.94951 87.8501 7.97662 89.4864 10.0294C91.1226 12.0812 91.9422 14.7176 91.9422 17.9352L91.922 18.476H77.5034C77.5034 19.9042 77.6387 21.0488 77.9083 21.9084C78.1794 22.7694 78.7164 23.5177 79.5224 24.1552C80.3261 24.7942 81.3311 25.113 82.5388 25.113C84.8814 25.113 86.4628 23.9756 87.2804 21.7008ZM86.9901 15.4173C86.9761 13.9053 86.522 12.6711 85.6273 11.7148C84.7327 10.757 83.6266 10.2788 82.3086 10.2788C81.0046 10.2788 79.9159 10.7257 79.0424 11.6209C78.1684 12.5151 77.6555 13.781 77.5029 15.4178H86.9901V15.4173ZM111.959 28.3995H107.214V15.2709C107.214 13.8846 106.896 12.8406 106.258 12.14C105.62 11.4393 104.85 11.0897 103.949 11.0897C102.714 11.0897 101.632 11.6305 100.703 12.712C99.7729 13.7945 99.3082 15.4245 99.3082 17.601V28.399H94.5651V7.38578H98.8926V12.2541C100.405 8.7177 102.526 6.94854 105.259 6.94854C107.103 6.94854 108.681 7.53072 109.993 8.69699C111.304 9.86231 111.959 11.9079 111.959 14.8332V28.3995ZM68.1318 8.67292C69.8032 10.0385 70.6386 11.5563 70.6386 13.2278C70.6386 15.0942 69.8561 16.6394 68.2878 17.8649C66.7213 19.0919 64.6498 19.7034 62.0731 19.7034C60.9588 19.7034 59.6563 19.5229 58.1659 19.1612C57.1908 19.6066 56.7035 20.2962 56.7035 21.2289C56.7035 21.7456 56.9399 22.2185 57.4137 22.6504C57.8866 23.0828 58.6041 23.2981 59.5657 23.2981H65.8334C67.9786 23.2981 69.6606 23.8514 70.8794 24.9594C72.0981 26.0659 72.7078 27.4422 72.7078 29.0852C72.7078 31.0773 71.7851 32.727 69.9394 34.0353C68.0937 35.3461 65.3605 36 61.7389 36C54.9276 36 51.5222 34.0999 51.5222 30.2962C51.5222 28.4168 52.5464 26.9881 54.5939 26.013C53.2841 24.8992 52.6302 23.7353 52.6302 22.5238C52.6302 20.6858 53.7512 19.2224 55.9937 18.1375C54.043 16.9524 53.0694 15.3234 53.0694 13.248C53.0694 11.4937 53.7854 9.99521 55.2213 8.75526C56.6558 7.51675 58.8343 6.89702 61.7606 6.89702C63.0968 6.89702 64.4548 7.04292 65.8334 7.33618L68.1318 8.67292ZM56.6409 27.2886C55.9581 27.915 55.6171 28.5213 55.6171 29.1059C55.6171 30.067 56.1882 30.9126 57.3304 31.644C58.4726 32.3765 60.2895 32.7419 62.7838 32.7419C66.4464 32.7419 68.2781 31.8015 68.2781 29.9211C68.2781 29.2248 67.9579 28.6985 67.3165 28.3446C66.6766 27.9892 65.9441 27.811 65.1231 27.811H60.067C59.1068 27.8105 57.9641 27.6367 56.6409 27.2886ZM61.8636 16.8845C64.4538 16.8845 65.7496 15.6658 65.7496 13.2278C65.7496 12.2945 65.4255 11.5087 64.7783 10.8673C64.1297 10.2268 63.1869 9.90613 61.9469 9.90613C60.6935 9.90613 59.7222 10.2398 59.0332 10.9087C58.3417 11.5775 57.9983 12.4135 57.9983 13.416C57.9983 14.447 58.3397 15.2829 59.0216 15.9234C59.7049 16.5638 60.6521 16.8845 61.8636 16.8845Z"
    fill="#2C2C2C"/>
  <path d="M65.4087 7.50116L71.582 5.42334L72.2604 9.4639L68.8517 9.76341" fill="#2C2C2C"/>
</svg>
