<svg width="246" height="32" viewBox="0 0 246 32" fill="none" xmlns="http://www.w3.org/2000/svg">
  <path
    d="M168.659 0.0403652L162.438 0.0565128V31.9758H190.967C194.087 30.6517 195.758 28.3628 196.404 25.6904H168.643L168.659 0.0403652ZM215.212 6.41857H239.009C242.315 5.7646 244.778 2.84597 245.468 0.0242176H208.749C209.435 2.84597 211.934 5.7646 215.212 6.41857ZM138.145 6.32976C141.451 5.36899 144.236 2.84597 144.914 0.048439H109.996V18.9085H138.577V25.529L116.16 25.5491C112.644 26.526 109.673 28.8836 108.183 32L109.996 31.9677H144.721V12.6393H116.16V6.32976H138.145ZM209.71 31.9677H215.898V19.1185H238.428V31.9677H244.612V12.6958L209.71 12.6636V31.9677ZM61.9009 6.39838H85.694C89.0042 5.74038 91.4626 2.82174 92.1529 -3.8147e-06H55.4379C56.1241 2.82174 58.6189 5.74038 61.9009 6.39838ZM0 0.0726585C0.71452 2.86615 3.13259 5.71212 6.44683 6.43068H16.4622L16.9709 6.63252V31.9031H23.2279V6.63252L23.7931 6.43068H33.8206C37.1671 5.5668 39.5327 2.86615 40.2392 0.0726585V0.0121078H0V0.0726585ZM61.9009 31.9717H85.694C89.0042 31.3097 91.4626 28.3991 92.1529 25.5734H55.4379C56.1241 28.3991 58.6189 31.3097 61.9009 31.9717ZM61.9009 19.0135H85.694C89.0042 18.3595 91.4626 15.4409 92.1529 12.6191H55.4379C56.1241 15.4409 58.6189 18.3595 61.9009 19.0135Z"
    fill="#2C2C2C"/>
</svg>
