<svg width="125" height="36" viewBox="0 0 125 36" fill="none" xmlns="http://www.w3.org/2000/svg">
  <path
    d="M59.468 9H65.0449V26.9988H60.9123V14.8951L55.6255 26.9988L50.0614 14.8799V26.9988H46.2053V9H51.7173L55.6912 18.316L59.468 9Z"
    fill="#2C2C2C"/>
  <path d="M67.1001 9V26.9988H77.4853V23.9474H71.1261V19.3684H77.2224V16.2882H71.1261V12.1587H77.4853V9H67.1001Z"
        fill="#2C2C2C"/>
  <path
    d="M92.9744 18.0025C92.9744 24.7024 99.9668 30.0637 107.334 26.4777V22.6216C101.665 26.5931 96.7303 22.6125 96.8112 18.1564C96.8664 15.1948 98.8567 12.3783 102.706 12.1587C104.6 12.0512 105.882 12.5218 107.334 13.9124V9.90242C102.011 6.74765 92.9744 10.2198 92.9744 18.0025Z"
    fill="#2C2C2C"/>
  <path d="M109.034 26.9985H112.862V9.17285H109.034V26.9985Z" fill="#2C2C2C"/>
  <path d="M117.665 17.347L123.45 9.2124H118.979L113.248 17.3317L119.901 26.9988H124.291L117.665 17.347Z"
        fill="#2C2C2C"/>
  <path
    d="M79.2749 8.99951V26.9984H83.315V17.3285L89.9932 26.9984H94.2998L89.0128 19.4407C91.4631 18.5141 92.258 16.4597 92.258 14.4062C92.258 12.3543 90.5356 8.99951 86.3629 8.99951H79.2749ZM83.315 11.9946H85.0784C88.06 11.9946 88.2191 13.9438 88.2191 14.6716C88.2191 16.0622 87.0393 17.2463 85.5164 17.2463H83.315V11.9946Z"
    fill="#2C2C2C"/>
  <path
    d="M9.9579 9.00018C9.9579 4.02919 13.9879 0 18.9581 0C23.9299 0 27.9583 4.02919 27.9583 9.00018H9.9579ZM9.9579 26.9998C9.9579 22.0296 13.9879 17.9996 18.9581 17.9996C13.9879 17.9996 9.9579 13.9712 9.9579 9.00018C4.98771 9.00018 0.958496 13.0294 0.958496 17.9996C0.958496 22.9714 4.98771 26.9998 9.9579 26.9998ZM9.9579 26.9998C9.9579 31.9716 13.9879 36 18.9581 36C23.9299 36 27.9583 31.9716 27.9583 26.9998H9.9579ZM18.9581 17.9996C23.9299 17.9996 27.9583 22.0296 27.9583 26.9998C32.9293 26.9998 36.9593 22.9714 36.9593 17.9996C36.9593 13.0294 32.9293 9.00018 27.9583 9.00018C27.9583 13.9712 23.9299 17.9996 18.9581 17.9996Z"
    fill="#2C2C2C"/>
</svg>
