<svg width="153" height="22" viewBox="0 0 153 22" fill="none" xmlns="http://www.w3.org/2000/svg">
  <path
    d="M19.7227 21.1274V0H24.5351V21.1274H19.7227ZM113.27 13.234C113.27 8.12819 109.309 4.95907 104.673 4.95907C100.007 4.95907 96.0748 8.15753 96.0748 13.234C96.0748 18.3398 100.036 21.5382 104.673 21.5382C109.309 21.5382 113.27 18.3104 113.27 13.234ZM108.517 13.234C108.517 15.9042 106.727 17.4008 104.643 17.4008C102.56 17.4008 100.77 15.9042 100.77 13.234C100.77 10.5344 102.56 9.09653 104.643 9.09653C106.727 9.09653 108.517 10.5344 108.517 13.234ZM17.786 15.0533C17.786 12.6764 16.5536 10.8571 14.3528 10.0355C16.4362 8.89112 17.1698 7.39459 17.1698 5.63398C17.1698 2.5529 14.9397 0 9.95128 0.0293436H0.385254V21.1568H10.3621C15.3798 21.1274 17.786 18.6332 17.786 15.0533ZM12.064 6.25019C12.064 7.68803 11.1544 8.50965 9.39375 8.50965H5.40301V4.10811H9.39375C11.0076 4.10811 12.064 4.81236 12.064 6.25019ZM12.5042 14.7305C12.5042 16.1097 11.5358 17.0193 9.74587 17.0193H5.40301V12.4417H9.74587C11.4771 12.4417 12.5042 13.322 12.5042 14.7305ZM59.6887 9.27259C58.3683 6.51429 55.9034 4.98842 52.1768 4.98842C47.7752 4.98842 43.8432 7.74672 43.8432 13.234C43.8432 18.5745 47.3057 21.5382 52.1181 21.5382C55.4926 21.5382 58.3389 20.1884 59.6887 17.2834L55.8154 15.288C55.1111 16.5792 54.0254 17.4008 52.2941 17.4008C50.064 17.4008 48.6262 15.8162 48.6262 13.234C48.6262 10.6517 50.2694 9.09653 52.2648 9.09653C53.82 9.09653 54.9938 9.80077 55.7273 11.3266L59.6887 9.27259ZM130.612 9.27259C129.292 6.51429 126.827 4.98842 123.1 4.98842C118.699 4.98842 114.767 7.74672 114.767 13.234C114.767 18.5745 118.229 21.5382 123.042 21.5382C126.416 21.5382 129.262 20.1884 130.612 17.2834L126.739 15.288C126.035 16.5792 124.949 17.4008 123.218 17.4008C120.988 17.4008 119.55 15.8162 119.55 13.234C119.55 10.6517 121.193 9.09653 123.188 9.09653C124.744 9.09653 125.917 9.80077 126.651 11.3266L130.612 9.27259ZM90.2648 21.1274L86.2447 14.0263H83.1636V21.1274H78.2046V0H87.1544C91.9961 0 95.3706 2.31815 95.3706 6.86641C95.3706 9.77143 93.9327 11.8255 91.3799 13.0873L96.0161 21.1274H90.2648ZM83.193 9.83012H86.8903C89.1791 9.83012 90.2941 8.539 90.2941 7.01313C90.2941 5.19382 89.2378 4.19614 86.8903 4.19614H83.193V9.83012ZM43.0509 20.8633V17.5475C42.8455 17.6062 42.5521 17.6649 42.2293 17.6649C41.6131 17.6649 41.2903 17.3421 41.2903 16.7846V11.2973C41.2903 7.18919 38.532 5.01776 33.9837 5.01776C31.02 5.01776 28.4965 6.10347 26.9119 7.51197L29.5822 10.505C30.6385 9.56602 32.047 8.97915 33.4262 8.97915C35.5389 8.97915 36.5366 10.0355 36.5366 11.7668V12.2656C35.5389 12.0309 34.2771 11.7961 32.7513 11.7961C28.9073 11.7961 26.4131 13.6448 26.4131 16.6965C26.4131 19.8363 28.4965 21.4795 31.7243 21.4795C33.925 21.4795 35.891 20.5699 36.9181 19.3961C37.5343 20.9514 38.8841 21.3622 40.2046 21.3622C41.1142 21.3915 42.1706 21.2448 43.0509 20.8633ZM36.5659 15.9042C36.5659 17.3421 35.1868 18.2811 33.6022 18.2811C32.1057 18.2811 31.3721 17.5181 31.3721 16.4618C31.3721 15.3467 32.1938 14.5251 33.8663 14.5251C34.8934 14.5251 35.803 14.7012 36.5659 14.8772V15.9042ZM147.808 21.1274L142.144 11.2973L147.456 5.5166H142.115L136.51 11.7375V0.0293436H131.727V21.1568H136.51V17.3421L138.799 14.9066L142.379 21.1568H147.808V21.1274ZM76.9428 21.1274L71.2795 11.2973L76.5907 5.5166H71.1914L65.6455 11.7375V0.0293436H60.8625V21.1568H65.6455V17.3421L67.9343 14.9066L71.5142 21.1568H76.9428V21.1274ZM150.742 18.1931C151.74 18.1931 152.327 18.8093 152.327 19.7483C152.327 20.6873 151.74 21.3035 150.742 21.3035C149.744 21.3035 149.157 20.6873 149.157 19.7483C149.157 18.8093 149.744 18.1931 150.742 18.1931ZM150.742 21.0981C151.534 21.0981 152.062 20.6286 152.062 19.7483C152.062 18.868 151.505 18.3985 150.742 18.3985C149.95 18.3985 149.422 18.868 149.422 19.7483C149.392 20.6579 149.95 21.0981 150.742 21.0981ZM150.126 18.956H150.771C151.153 18.956 151.358 19.1614 151.358 19.4548C151.358 19.7189 151.241 19.8656 151.035 19.9537L151.329 20.5112H151.035L150.771 20.0124H150.419V20.5112H150.126V18.956ZM150.419 19.1907V19.7483H150.742C150.947 19.7483 151.065 19.6896 151.065 19.4842C151.065 19.3081 150.977 19.2201 150.771 19.2201H150.419V19.1907Z"
    fill="#2C2C2C"/>
</svg>
