<svg width="102" height="46" viewBox="0 0 102 46" fill="none" xmlns="http://www.w3.org/2000/svg">
  <path
    d="M13.7883 46C15.8163 46 17.4602 44.355 17.4602 42.3282C17.4602 40.3001 15.8163 38.6563 13.7883 38.6563C11.7603 38.6563 10.1152 40.3001 10.1152 42.3282C10.1152 44.355 11.7603 46 13.7883 46Z"
    fill="#2C2C2C"/>
  <path
    d="M24.353 46C26.381 46 28.0261 44.355 28.0261 42.3282C28.0261 40.3001 26.381 38.6563 24.353 38.6563C22.325 38.6563 20.6812 40.3001 20.6812 42.3282C20.6812 44.355 22.325 46 24.353 46Z"
    fill="#2C2C2C"/>
  <path
    d="M78.2785 46C80.3065 46 81.9503 44.355 81.9503 42.3282C81.9503 40.3001 80.3065 38.6563 78.2785 38.6563C76.2505 38.6563 74.6055 40.3001 74.6055 42.3282C74.6055 44.355 76.2505 46 78.2785 46Z"
    fill="#2C2C2C"/>
  <path
    d="M88.8421 46C90.8701 46 92.5152 44.355 92.5152 42.3282C92.5152 40.3001 90.8701 38.6563 88.8421 38.6563C86.814 38.6563 85.1714 40.3001 85.1714 42.3282C85.1714 44.355 86.814 46 88.8421 46Z"
    fill="#2C2C2C"/>
  <path d="M8.97333 34.2614H4.407V3.78267H8.82584V0.00137329H0.624512V38.0415H8.97333V34.2614Z" fill="#2C2C2C"/>
  <path d="M93.0361 3.78148H97.6025V34.2602H93.1812V38.0415H101.385V0.000183105H93.0361V3.78148Z" fill="#2C2C2C"/>
  <path
    d="M71.2855 25.747C71.3759 25.7018 71.2855 25.6019 71.2641 25.5567L68.9363 22.7353L68.8697 22.7032L66.3493 25.6447C66.3278 25.6792 66.3611 25.7018 66.3849 25.7244H68.4617V30.2884H57.9517V26.4976H57.8684C56.736 29.0478 54.074 30.9164 51.2645 30.8165C49.9109 30.8165 48.7345 30.2884 47.6248 29.6627L47.5712 29.7638V30.2681L47.4797 30.3015L42.6683 30.2789L42.6457 30.1563L42.6243 23.3074L42.6005 23.2836C42.2413 24.0461 41.9522 24.862 41.4824 25.59C39.1534 29.564 34.8107 31.1412 30.3907 30.6607C26.6736 30.3467 23.1373 27.6264 21.6267 24.1924C19.9817 20.4884 20.2838 15.3963 22.8578 12.2074C25.6221 8.58187 30.0886 7.09267 34.4646 7.99904C35.6065 8.25715 36.702 8.7151 37.7213 9.28485V9.20753C37.7439 8.87091 37.6428 8.54738 37.7213 8.23336H41.9725V15.4974L36.5794 15.4617C35.1913 13.5824 33.0087 12.8223 30.7368 13.3136C28.566 13.7168 26.5844 15.7983 26.2264 17.9691C25.7684 20.4432 26.7759 22.8376 28.8337 24.2578C30.4573 25.4889 33.0765 25.5353 34.7655 24.4267C35.6398 23.8998 36.4343 22.9934 36.9482 22.1441L37.0719 22.1108L44.1004 22.0977L44.2122 22.1108L48.3206 22.1441L48.3658 22.1762C48.5442 23.3859 48.499 24.6836 49.3269 25.6233C49.7753 26.0384 50.4236 26.1609 51.0623 26.0384C51.757 25.9373 52.4718 25.3331 52.674 24.6384C52.8762 23.9129 52.674 23.1278 52.159 22.6128C51.7462 22.2 51.23 21.9978 50.7269 21.773C47.9733 20.8119 44.5928 19.6474 43.5306 16.4585C42.7016 13.6942 43.6758 10.7967 45.9595 9.07312C47.8163 7.66242 50.8601 7.23779 52.9536 8.45817L53.5697 8.86021C53.6696 8.8495 53.6256 8.7258 53.6375 8.64849L53.6696 8.05494C55.0018 8.06565 56.4791 8.00974 57.7887 8.05494L57.778 15.5295L57.7554 15.5747L53.132 15.5521C52.8643 14.4554 52.9417 13.0685 51.757 12.4857C51.0956 12.2395 50.1892 12.2169 49.6623 12.7545C49.1592 13.191 48.9582 13.8167 49.07 14.4899C49.1711 15.3963 50.0548 15.9661 50.8506 16.2016C52.5729 16.8498 54.3524 17.3209 55.8511 18.5067C58.0908 20.0959 58.9532 22.7817 58.2371 25.4211C58.2026 25.4889 58.1789 25.5674 58.1919 25.6447L58.3026 25.7244H59.8822L63.0604 22.0763L65.7807 18.9314L65.3537 18.3723L60.5304 12.6213L59.1269 12.6094V8.14058H68.5616V12.6427C68.0347 12.6986 67.5256 12.5975 67.0213 12.6879L67.0665 12.8223C67.7278 13.605 68.3428 14.3995 69.0041 15.1501L69.1826 15.0157C69.8308 14.2532 70.5695 13.5039 71.1856 12.7105C70.6147 12.6308 70.033 12.7105 69.4621 12.6427L69.474 8.14058H79.8496L79.8151 12.676L79.7818 12.7105L77.6099 12.7319L72.1479 19.0099L72.1586 19.1229L77.6325 25.747H79.7533V30.2884H69.4502L69.4407 25.747H71.2855Z"
    fill="#2C2C2C"/>
  <path
    d="M96.2187 41.8965H95.8131V39.2535H96.4638L97.1322 41.3648L97.7757 39.2535H98.4145V41.8965H98.0089V39.6781L97.3285 41.8965H96.9324L96.2187 39.6425V41.8965ZM94.6522 41.8965H94.2109V39.6425H93.3545V39.2535H95.5146V39.6425H94.6522V41.8965Z"
    fill="#2C2C2C"/>
</svg>
