<svg width="163" height="56" viewBox="0 0 163 56" fill="none" xmlns="http://www.w3.org/2000/svg">
  <path
    d="M90.6321 2.56507C91.3009 3.91448 90.908 5.68261 90.21 6.89412L84.8091 19.0453L84.7624 19.1022L82.8101 6.7753C82.6535 5.59159 83.9182 5.08655 84.6626 4.51781C84.6248 4.34386 84.4334 4.35243 84.3129 4.27144L82.4881 4.25236L82.4326 4.19723C82.443 2.66692 83.2668 1.25381 84.6626 0.511123C86.1208 -0.331472 88.1748 -0.102394 89.4396 0.978172C89.9533 1.43633 90.3859 1.96869 90.6321 2.56507Z"
    fill="#2C2C2C"/>
  <path
    d="M80.6818 2.1429C81.1232 2.95979 81.3783 3.8871 81.2231 4.91399L79.0207 19.0281C79.0327 19.0452 79.0121 19.0643 78.9947 19.0727L78.4243 17.9372L72.9045 5.61028C72.3908 4.02306 72.8666 2.36357 74.0229 1.22594C75.1878 0.0438516 77.1042 -0.276729 78.6277 0.364432C79.4342 0.712658 80.2046 1.35382 80.6818 2.1429Z"
    fill="#2C2C2C"/>
  <path
    d="M98.6216 8.08475C99.3642 9.35123 99.1972 11.2678 98.3715 12.4431C97.86 13.2685 97.0153 13.6804 96.3 14.2215L84.8626 22.0728H84.8364L84.9641 21.6972L91.0269 8.01249C91.9351 6.3994 93.6688 5.58251 95.5024 5.82889C96.7587 6.05829 98.015 6.87502 98.6216 8.08475Z"
    fill="#2C2C2C"/>
  <path
    d="M72.6394 8.0123L78.9485 22.0711H78.847L66.1272 13.3046C64.8328 12.2138 64.3022 10.58 64.7416 8.9291C65.0708 7.69172 66.0978 6.5355 67.3197 6.07686C69.3203 5.34452 71.5742 6.12342 72.6394 8.0123Z"
    fill="#2C2C2C"/>
  <path
    d="M101.941 18.0094C102.575 19.3484 102.325 21.182 101.419 22.321C100.519 23.412 99.3163 24.0082 97.9048 23.9703L84.3423 23.979L95.7039 16.0742C96.814 15.359 98.5012 15.2295 99.7127 15.8086C100.648 16.1758 101.529 17.0926 101.941 18.0094Z"
    fill="#2C2C2C"/>
  <path
    d="M61.7788 18.0094C61.1465 19.3484 61.3945 21.182 62.3028 22.321C63.2023 23.412 64.4016 24.0082 65.8149 23.9703L79.3774 23.979L68.0157 16.0742C66.9058 15.359 65.2189 15.2295 64.009 15.8086C63.0729 16.1758 62.1925 17.0926 61.7788 18.0094Z"
    fill="#2C2C2C"/>
  <path
    d="M37.4249 32.0977C30.8349 32.0977 25.479 37.4572 25.479 44.0472C25.479 50.6356 30.8349 55.9983 37.4249 55.9983C44.015 55.9983 49.3745 50.6356 49.3745 44.0472C49.3745 37.4573 44.015 32.0977 37.4249 32.0977ZM37.4249 53.6443C32.1326 53.6443 27.826 49.338 27.826 44.0474C27.826 38.7582 32.1326 34.4518 37.4249 34.4518C42.7173 34.4518 47.0239 38.7584 47.0239 44.0474C47.0239 49.338 42.7173 53.6443 37.4249 53.6443Z"
    fill="#2C2C2C"/>
  <path
    d="M140.452 44.1987C139.811 43.8625 135.911 41.8549 135.351 41.5638C133.305 40.5176 132.58 39.5939 132.58 38.0291C132.58 35.8544 134.365 34.4499 137.134 34.4499C138.759 34.4499 140.331 35.1651 141.253 35.6837C141.42 35.775 141.618 35.8268 141.825 35.8268C142.47 35.8268 142.999 35.2978 142.999 34.6533C142.999 34.219 142.761 33.838 142.411 33.6346C141.25 32.9865 139.269 32.0991 137.134 32.0991C133.065 32.0991 130.227 34.5357 130.227 38.0291C130.227 41.164 132.288 42.6426 134.305 43.6732C134.87 43.9609 138.814 45.9943 139.405 46.3062C140.963 47.1213 141.825 48.3449 141.825 49.753C141.825 51.64 140.226 53.6459 137.267 53.6459C134.389 53.6459 132.154 51.7158 131.537 51.1212L131.352 50.9453L129.614 52.5308L129.817 52.7341C130.589 53.4996 133.412 55.9981 137.267 55.9981C141.589 55.9981 144.172 52.8221 144.172 49.753C144.172 47.4611 142.818 45.4358 140.452 44.1987Z"
    fill="#2C2C2C"/>
  <path
    d="M12.9262 34.4517C15.4921 34.4517 17.903 35.4514 19.7125 37.259C20.1434 37.688 20.9533 37.688 21.3772 37.259C21.6013 37.0401 21.7201 36.7455 21.7201 36.4301C21.7201 36.1181 21.6013 35.82 21.3772 35.6011L21.2325 35.4528C18.9955 33.2883 16.0436 32.0977 12.9262 32.0977C6.33948 32.0977 0.97998 37.4589 0.97998 44.0455C0.97998 50.6357 6.33948 55.9985 12.9262 55.9985C16.4036 55.9985 19.5366 54.5065 21.7201 52.1279L20.057 50.4632C18.2993 52.414 15.7556 53.6445 12.926 53.6445C7.63538 53.6445 3.3288 49.3364 3.3288 44.0456C3.32896 38.76 7.63554 34.4517 12.9262 34.4517Z"
    fill="#2C2C2C"/>
  <path
    d="M93.9276 34.4517C96.4903 34.4517 98.9045 35.4514 100.714 37.259C101.143 37.688 101.953 37.688 102.377 37.259C102.601 37.0401 102.725 36.7455 102.725 36.4301C102.725 36.1181 102.601 35.82 102.377 35.6011L102.234 35.4528C99.992 33.2883 97.0434 32.0977 93.9276 32.0977C87.3395 32.0977 81.978 37.4588 81.978 44.0453C81.978 50.6356 87.3395 55.9983 93.9276 55.9983C97.4034 55.9983 100.536 54.5063 102.723 52.1277L101.058 50.4631C99.3007 52.4139 96.7535 53.6443 93.9276 53.6443C88.6352 53.6443 84.3269 49.3363 84.3269 44.0455C84.3269 38.76 88.6352 34.4517 93.9276 34.4517Z"
    fill="#2C2C2C"/>
  <path
    d="M73.6874 32.0977C73.2462 32.0977 72.898 32.382 72.7083 32.749C72.5153 33.116 65.6772 50.0304 65.6756 50.0304C65.6756 50.0304 58.8375 33.1158 58.6461 32.749C58.4548 32.3819 58.1069 32.0977 57.6658 32.0977C57.1504 32.0977 56.7627 32.4768 56.6266 32.9543C56.4905 33.4349 52.632 54.7229 52.632 54.7229C52.6181 54.7921 52.6113 54.8645 52.6113 54.9384C52.6113 55.5241 53.0887 55.9983 53.6712 55.9983C54.1882 55.9983 54.619 55.6297 54.712 55.142L58.0534 36.9282C58.0534 36.9282 64.5005 52.8551 64.6883 53.234C64.8779 53.6115 65.2294 53.9062 65.6775 53.9062C66.1255 53.9062 66.4755 53.6115 66.6632 53.234C66.8528 52.8549 73.2997 36.9282 73.2997 36.9282L76.7721 55.8673H78.93C78.93 55.8673 74.8646 33.4348 74.7285 32.9543C74.5903 32.4768 74.2024 32.0977 73.6874 32.0977Z"
    fill="#2C2C2C"/>
  <path
    d="M116.17 32.0991C115.724 32.0975 115.378 32.3887 115.183 32.7678C114.99 33.1453 106.334 54.5249 106.334 54.5249C106.282 54.6505 106.252 54.7904 106.252 54.9384C106.252 55.5241 106.726 55.9999 107.312 55.9999C107.759 55.9999 108.141 55.7207 108.298 55.3261L111.659 47.0596H120.683L124.268 55.8672H126.558C126.558 55.8672 117.346 33.1451 117.156 32.7676C116.968 32.3887 116.618 32.0975 116.17 32.0991ZM112.617 44.7069L116.17 35.9695L119.727 44.7069H112.617Z"
    fill="#2C2C2C"/>
  <path
    d="M161.507 32.2251H148.203C147.555 32.2251 147.03 32.7526 147.03 33.4022C147.03 34.0483 147.555 34.5757 148.203 34.5757H153.78V55.8656H155.934V34.5759H161.507C162.155 34.5759 162.686 34.0485 162.686 33.4023C162.686 32.7526 162.155 32.2251 161.507 32.2251Z"
    fill="#2C2C2C"/>
</svg>
