<svg width="195" height="36" viewBox="0 0 195 36" fill="none" xmlns="http://www.w3.org/2000/svg">
  <path fill-rule="evenodd" clip-rule="evenodd"
        d="M0 0V26.0221H17.4651V21.1664H5.94176V14.9489H16.9478V10.242H5.94176V4.84809H17.4651V0H0ZM178.528 4.85038H184.283V0H178.528V4.85038ZM76.1664 6.96179H81.5426V8.76408L81.5797 8.73223L81.6269 8.69139C82.2881 8.11922 84.1362 6.5198 87.426 6.5198C91.4766 6.5198 94.6949 9.45415 94.6949 14.0618V26.0221H89.0161V15.5442C89.0161 12.9755 87.7395 11.4519 85.4291 11.4519C83.191 11.4519 81.8444 12.8885 81.8444 15.5442V26.0221H76.1664V6.96179ZM130.257 16.4916C130.257 10.9931 134.744 6.5198 140.62 6.5198C146.495 6.5198 150.981 10.9931 150.981 16.4916C150.981 21.9885 146.494 26.4564 140.62 26.4564C134.744 26.4564 130.257 21.9885 130.257 16.4916ZM140.654 21.2909C137.867 21.2909 135.862 19.1245 135.862 16.4917C135.862 13.8573 137.868 11.6924 140.654 11.6924C143.445 11.6924 145.453 13.8573 145.453 16.4917C145.453 19.1245 143.445 21.2909 140.654 21.2909ZM52.2671 16.4954C52.2671 10.9946 56.7565 6.52135 62.6275 6.52135C68.5055 6.52135 72.9933 10.9946 72.9933 16.4954C72.9933 21.9908 68.5055 26.4572 62.6275 26.4572C56.7557 26.458 52.2671 21.9908 52.2671 16.4954ZM62.6669 21.2947C59.8773 21.2947 57.8726 19.1283 57.8726 16.4939C57.8726 13.8573 59.8773 11.6947 62.6669 11.6947C65.4581 11.6947 67.4628 13.8573 67.4628 16.4939C67.4628 19.1283 65.4581 21.2947 62.6669 21.2947ZM184.283 26.0221H178.528V6.96175H184.283V26.0221ZM188.722 26.0221H194.48V0H188.722V26.0221ZM154.309 26.0221H159.768L159.83 24.555C159.858 24.5753 159.891 24.6016 159.931 24.6331C160.482 25.065 162.262 26.4603 165.735 26.4603C170.633 26.4603 175.176 22.1534 175.176 16.4954C175.176 10.8267 170.911 6.51985 165.8 6.51985C162.219 6.51985 160.418 7.99559 159.931 8.39447L159.931 8.39457C159.887 8.43091 159.853 8.4583 159.83 8.47481V0H154.309V26.0221ZM169.343 16.4809C169.343 13.8007 167.272 11.7213 164.498 11.7213C161.742 11.7213 159.625 13.7816 159.625 16.4961C159.625 19.1763 161.713 21.2557 164.492 21.2557C167.245 21.2549 169.343 19.1687 169.343 16.4809ZM25.445 26.0221H18.7868L27.8418 14.9L19.8292 6.96179H27.7843L31.3362 10.5572L37.877 2.29919H44.5446L34.9676 14.1343L38.693 17.8091L47.3023 6.96179H53.9878L42.3384 21.4038L57.1306 36H49.0643L38.7724 25.7213L33.3044 32.6748H26.6228L35.1621 22.1832L31.4304 18.474L25.445 26.0221ZM99.2433 26.0221V0H108.631L113.062 18.9916H113.264L117.807 0H126.931V26.0229H121.344V6.37405H121.09L116.169 26.0229H109.892L105.085 6.37405H104.831V26.0221H99.2433Z"
        fill="#2C2C2C"/>
</svg>
