<svg width="199" height="30" viewBox="0 0 199 30" fill="none" xmlns="http://www.w3.org/2000/svg">
  <path
    d="M0 0.753422H13.7085V10.0642H13.7978L24.2511 0.753422H39.6193L27.0105 12.1726L41.5988 27.8418H24.2511L13.7978 16.7537H13.7085V27.8418H0V0.753422Z"
    fill="#2C2C2C"/>
  <path
    d="M61.4049 23.1432C67.5021 23.1432 67.0995 16.3414 67.0995 14.0953C67.0995 11.8491 67.1671 5.6166 61.4049 5.6166C55.6404 5.6166 55.7093 11.8491 55.7093 14.0953C55.7093 16.3414 55.303 23.1432 61.4049 23.1432ZM61.4049 0.000244141C76.97 0.000244141 81.204 3.26408 81.204 14.3793C81.204 25.4957 76.97 28.7588 61.4049 28.7588C45.8379 28.7588 41.6051 25.4957 41.6051 14.3793C41.6051 3.26408 45.8379 0.000244141 61.4049 0.000244141Z"
    fill="#2C2C2C"/>
  <path
    d="M110.767 17.669V28.0234H124.841V0.937452H110.767V10.2471H100.67V0.937452H86.5936V28.0234H100.67V17.669H110.767Z"
    fill="#2C2C2C"/>
  <path
    d="M131.495 0.93742H145.896V21.5766C145.896 21.5766 157.39 21.6097 158.917 21.6097C160.446 21.6097 161.349 20.239 161.349 20.239V28.0234H131.495V0.937452V0.93742Z"
    fill="#2C2C2C"/>
  <path
    d="M194.925 9.90458C191.946 7.52021 189.392 6.71877 186.647 6.67416C183.963 6.6276 181.512 7.56085 181.512 9.19398C181.512 10.4833 183.345 11.0175 189.754 12.3531C195.02 13.4552 198.528 16.1447 198.528 21.152C198.528 26.8043 189.125 30 180.714 30C174.81 30 170.277 28.9369 166.221 27.1169V19.5309C168.728 22.1462 174.337 23.5352 178.635 23.5352C181.019 23.5352 182.189 23.1851 182.189 21.2887C182.189 20.1148 180.702 19.0445 176.202 18.2204C167.675 16.6582 164.793 14.2172 164.793 10.044C164.793 4.0504 172.246 0.483032 181.43 0.483032C186.381 0.483032 190.927 0.635992 194.925 2.49496V9.90458Z"
    fill="#2C2C2C"/>
  <path
    d="M153.332 11.9873L154.319 10.2474C151.351 8.77959 150.475 5.04531 151.983 2.91588C153.604 0.624315 158.105 -0.357547 160.536 3.18952C162.605 6.21599 160.625 8.77958 159.726 9.51408C158.827 10.2474 153.332 11.9873 153.332 11.9873Z"
    fill="#2C2C2C"/>
</svg>
