<svg width="52" height="52" viewBox="0 0 52 52" fill="none" xmlns="http://www.w3.org/2000/svg">
<path d="M0 26C0 11.6406 11.6406 0 26 0C40.3594 0 52 11.6406 52 26C52 40.3594 40.3594 52 26 52C11.6406 52 0 40.3594 0 26Z" fill="#007A7F"/>
<path fill-rule="evenodd" clip-rule="evenodd" d="M40.4424 19.6466C40.4424 18.2325 39.2864 17.0856 37.8608 17.0856C36.4349 17.0856 35.2793 18.2325 35.2793 19.6466C35.2793 21.0612 36.4349 22.2081 37.8608 22.2081C39.2864 22.2081 40.4424 21.0612 40.4424 19.6466ZM34.0689 33.0253V30.6261C29.0059 32.3121 27.96 29.3478 27.96 28.3299C27.96 27.3123 28.7388 24.6611 34.0689 26.0227L34.018 23.4291C26.5672 21.6138 23.3867 25.058 23.3867 27.9596C23.3867 30.8619 25.1495 35.2945 34.0689 33.0253ZM35.6232 23.1005V33.5595H38.8742L15.6734 41L12.696 33.5595H16.7298V30.4305C16.9914 30.4426 17.2732 30.4492 17.5776 30.4492C20.2329 30.4492 22.9589 29.0417 22.9589 26.9858C22.9589 24.9293 21.7125 23.3805 18.8069 23.1005C18.1502 23.037 17.4627 22.9802 16.9494 22.9605H16.7298H12.4281V32.8904L6 16.825L38.8105 15L46 31.2743L39.9246 33.2226V23.1005H35.6232ZM17.4629 25.3397C18.4818 25.4377 18.919 25.9241 18.919 26.6453C18.919 27.3665 17.9629 27.9166 17.032 27.9166C17.0021 27.9166 16.9509 27.917 16.8907 27.9174C16.7829 27.9181 16.6462 27.9191 16.5508 27.9185V25.2907H16.7348H16.8115C16.9915 25.2973 17.2327 25.3175 17.4629 25.3397Z" fill="white"/>
</svg>
