<svg width="47" height="56" viewBox="0 0 47 56" fill="none" xmlns="http://www.w3.org/2000/svg">
  <path fill-rule="evenodd" clip-rule="evenodd"
        d="M31.6641 8.95627C33.6626 6.5359 34.6652 3.92095 34.6652 1.12031V1.12028C34.6652 0.748822 34.6483 0.374394 34.6076 0C33.2155 0.0736965 31.7352 0.504123 30.1703 1.28243C28.602 2.07253 27.3088 3.06297 26.2919 4.25414C24.2552 6.60676 23.1082 9.48411 23.1082 12.1727C23.1082 12.5443 23.1316 12.8979 23.1719 13.2339C26.3353 13.4963 29.2524 11.8336 31.6641 8.95627ZM42.3034 49.0542C43.4415 47.3984 44.4238 45.5975 45.2537 43.641C45.5958 42.8114 45.9176 41.9472 46.2225 41.045C44.8167 40.4436 43.5533 39.5967 42.422 38.5009C39.9256 36.14 38.6553 33.1665 38.6181 29.5934C38.5774 25.006 40.6199 21.4301 44.749 18.877C42.4423 15.5309 38.9737 13.6736 34.3569 13.2934C32.6531 13.1458 30.5733 13.5205 28.1091 14.4254C25.5033 15.4013 23.9662 15.8907 23.5126 15.8907C22.906 15.8907 21.5223 15.4721 19.3673 14.6467C17.2062 13.824 15.4672 13.4054 14.1411 13.4054C11.7175 13.4465 9.46703 14.0894 7.38421 15.3511C5.30139 16.6128 3.63723 18.3315 2.38632 20.5102C0.794649 23.2227 0 26.4595 0 30.2125C0 33.4887 0.589382 36.8728 1.7651 40.3675C2.86291 43.603 4.26421 46.4409 5.96868 48.8882C7.5573 51.18 8.88341 52.7978 9.94362 53.7414C11.6047 55.3177 13.2689 56.0678 14.9385 55.9952C16.0363 55.9572 17.4721 55.5735 19.2545 54.8372C21.0342 54.1044 22.698 53.7414 24.2493 53.7414C25.7286 53.7414 27.3463 54.1044 29.1067 54.8372C30.8613 55.5735 32.3686 55.9364 33.6185 55.9364C35.3595 55.8949 36.9854 55.1656 38.5029 53.7414C39.4818 52.8738 40.752 51.3114 42.3034 49.0542Z"
        fill="#2C2C2C"/>
</svg>
