<svg width="127" height="30" viewBox="0 0 127 30" fill="none" xmlns="http://www.w3.org/2000/svg">
  <path
    d="M28.7152 29.999L14.2991 14.2129L5.26707 20.883V29.999H0.291504V0H5.26707V15.5333L26.2714 0H33.4421L18.1099 11.3515L35.0992 29.999H28.7152Z"
    fill="#2C2C2C"/>
  <path
    d="M75.2707 29.999L60.8557 14.2129L51.8206 20.883V29.999H46.844V0H51.8206V15.5333L72.8279 0H79.9976L64.6644 11.3515L81.6578 29.999H75.2707Z"
    fill="#2C2C2C"/>
  <path
    d="M121.141 29.999L113.024 18.5616H97.8544V29.999H92.8879V0H116.544C122.844 0 126.65 3.64598 126.65 9.4466C126.65 14.7467 123.338 17.5687 118.863 18.3118L126.906 30H121.141V29.999ZM121.559 9.44559C121.559 6.12821 119.523 4.51249 115.348 4.51249H97.8544V14.042H115.795C119.523 14.042 121.559 12.3858 121.559 9.44559Z"
    fill="#2C2C2C"/>
</svg>
