<svg width="63" height="36" viewBox="0 0 63 36" fill="none" xmlns="http://www.w3.org/2000/svg">
  <path
    d="M0.467773 0.445801V15.9869H8.60487C11.8076 15.9869 14.7673 14.8629 14.7673 11.561C14.7673 9.32884 13.1592 8.30989 11.3905 7.77652C12.4681 7.34428 13.6906 6.43623 13.6906 4.53268C13.6906 2.09631 11.2732 0.445801 8.01841 0.445801H0.467773ZM5.45266 4.06534H7.28534C8.0314 4.06534 8.60029 4.64973 8.60029 5.24284C8.60029 5.7939 8.00916 6.38368 7.28534 6.38368H5.45266V4.06534ZM5.45266 9.6092H7.8718C8.71632 9.6092 9.42499 10.2506 9.42499 10.9837C9.42499 11.7622 8.76219 12.4086 7.72518 12.4086H5.45266V9.6092Z"
    fill="#2C2C2C"/>
  <path
    d="M4.49976 17.6821V33.2233H12.6369C15.8396 33.2233 18.7992 32.0992 18.7992 28.7973C18.7992 26.5652 17.1912 25.5462 15.4225 25.0128C16.5001 24.5806 17.7225 23.6726 17.7225 21.769C17.7225 19.3326 15.3051 17.6821 12.0504 17.6821H4.49976ZM9.48464 21.3017H11.3173C12.0634 21.3017 12.6323 21.8861 12.6323 22.4792C12.6323 23.0302 12.0411 23.62 11.3173 23.62H9.48464V21.3017ZM9.48464 26.8455H11.9038C12.7483 26.8455 13.457 27.4869 13.457 28.22C13.457 28.9985 12.7942 29.6449 11.7572 29.6449H9.48464V26.8455Z"
    fill="#2C2C2C"/>
  <path
    d="M15.1584 15.9855V0.444336H27.694V4.19766H20.1287V6.2356H26.2718V9.75435H20.1287V12.2468H27.694V15.9855H15.1584Z"
    fill="#2C2C2C"/>
  <path
    d="M34.4847 16.4301C38.0132 16.4301 40.8356 14.4174 40.8356 11.1558C40.8356 5.89201 33.9879 6.70202 33.9879 5.06312C33.9879 4.43005 34.6536 4.0941 35.3364 4.0941C36.5131 4.0941 37.3633 4.86931 37.3633 4.86931L40.3093 2.06418C39.131 0.942791 37.27 0 34.7631 0C30.9981 0 28.5349 2.2346 28.5349 4.93018C28.5349 10.2609 35.2839 9.48723 35.2839 11.1599C35.2839 11.7462 34.7198 12.336 33.6967 12.336C32.5352 12.336 31.615 11.6348 30.8988 11.0399L27.9355 13.865C29.1288 15.0273 31.0444 16.4301 34.4847 16.4301Z"
    fill="#2C2C2C"/>
  <path d="M44.6721 15.9855V4.183H40.5669V0.444336H53.7622V4.183H49.657V15.9855H44.6721Z" fill="#2C2C2C"/>
  <path
    d="M18.9705 17.6714H23.9407V26.9814C23.9407 27.9268 24.8816 28.798 25.8626 28.798C26.7879 28.798 27.7233 28.0113 27.7233 26.9317V17.6714H32.6789V26.8683C32.6789 30.5177 29.649 33.4288 25.7312 33.4288C21.7912 33.4288 18.9705 30.2607 18.9705 26.6695V17.6714Z"
    fill="#2C2C2C"/>
  <path
    d="M38.8073 33.2125V27.6592L32.9656 17.6714H37.9943L41.2998 23.0228L44.6166 17.6714H49.6568L43.7922 27.7163V33.2125H38.8073Z"
    fill="#2C2C2C"/>
  <path fill-rule="evenodd" clip-rule="evenodd"
        d="M46.7246 29.109L49.6569 26.1768H62.0605V35.9999H49.6569L46.7246 33.0676V29.109ZM48.5157 31.7462C48.8801 31.7462 49.1755 31.4508 49.1755 31.0864C49.1755 30.722 48.8801 30.4266 48.5157 30.4266C48.1513 30.4266 47.856 30.722 47.856 31.0864C47.856 31.4508 48.1513 31.7462 48.5157 31.7462Z"
        fill="#2C2C2C"/>
</svg>
