<svg width="300" height="36" viewBox="0 0 300 36" fill="none" xmlns="http://www.w3.org/2000/svg">
  <path
    d="M12.7098 4.50037H12.6331L8.47981 15.8452H16.633L12.7098 4.50037ZM10.7866 0.000976562H14.633L24.556 27.3845H20.6721L17.748 19.0012H7.36299L4.21056 27.3845H0.32666"
    fill="#2C2C2C"/>
  <path
    d="M26.2095 8.99935H29.1318V11.3079H29.2085C30.3628 9.80753 32.2093 8.53906 34.3626 8.53906C36.3626 8.53906 38.7086 9.34545 39.7077 11.7307C41.0172 9.92349 43.3239 8.53906 45.2864 8.53906C48.2854 8.53906 51.2862 9.84677 51.2862 15.2311V27.3841H48.132V15.0759C48.132 12.8065 47.1329 11.4614 44.9011 11.4614C42.9404 11.4614 40.3249 12.5371 40.3249 15.3078V27.3841H37.1707V15.0759C37.1707 12.8065 36.1699 11.4614 33.9398 11.4614C31.9773 11.4614 29.3637 12.5371 29.3637 15.3078V27.3841H26.2095"
    fill="#2C2C2C"/>
  <path
    d="M67.0929 16.4223C66.7075 13.4233 65.0145 10.9988 61.5534 10.9988C58.4777 10.9988 56.7079 13.616 56.5152 16.4223H67.0929ZM56.5152 18.8843C56.5152 22.5381 58.4384 25.3837 62.0547 25.3837C64.8236 25.3837 66.5149 23.9992 67.2071 21.2696L70.3238 21.6532C69.1303 25.7672 66.0153 27.8457 61.9388 27.8457C56.3225 27.9616 53.1309 23.5764 53.1309 18.3455C53.1309 12.3832 55.939 8.53857 61.8995 8.53857C67.6692 8.53857 70.4773 12.7311 70.4773 18.1529V18.8843"
    fill="#2C2C2C"/>
  <path
    d="M72.3232 8.99968H75.4775V12.1539H75.5542C77.0528 9.65442 78.8618 8.76953 82.0535 8.76953V12.2306C81.438 12.1931 80.4764 12.1539 79.9376 12.1539C76.8994 12.1539 75.4775 14.9602 75.4775 17.0761V27.3844H72.3232"
    fill="#2C2C2C"/>
  <path d="M84.2197 27.3837H87.3739V8.99902H84.2197V27.3837Z" fill="#2C2C2C"/>
  <path
    d="M93.1807 20.9227C93.1807 24.3463 95.8729 25.3846 98.4116 25.3846C99.8728 25.3846 102.527 24.9226 102.527 22.2304C102.527 17.6525 90.5279 21.0761 90.5279 13.8846C90.5279 10.1541 94.1816 8.53955 97.45 8.53955C99.9495 8.53955 105.336 9.80802 105.336 14.5376L102.181 14.9604C102.181 12.2682 99.9887 10.9998 97.6034 10.9998C95.9121 10.9998 93.6803 11.4993 93.6803 13.7312C93.6803 17.8845 105.912 14.9229 105.912 22.1912C105.912 26.0768 101.949 27.8466 97.9495 27.8466C93.9122 27.8466 90.2192 26.0001 89.7964 21.3455"
    fill="#2C2C2C"/>
  <path
    d="M116.295 25.3846C120.833 25.3846 121.911 21.2313 121.911 18.1913C121.911 15.1548 120.833 10.9998 116.295 10.9998C111.758 10.9998 110.68 15.1548 110.68 18.1913C110.68 21.2313 111.758 25.3846 116.295 25.3846ZM116.295 8.53955C121.911 8.53955 125.295 12.6161 125.295 18.1913C125.295 23.7683 121.911 27.8466 116.295 27.8466C110.68 27.8466 107.296 23.7683 107.296 18.1913C107.296 12.6161 110.68 8.53955 116.295 8.53955Z"
    fill="#2C2C2C"/>
  <path
    d="M142.255 27.3838H139.101V24.9235H139.026C137.832 26.7683 136.025 27.8458 133.64 27.8458C129.949 27.8458 127.141 26.2312 127.141 21.1146V8.99902H130.295V21.1146C130.295 23.73 131.909 24.9235 134.179 24.9235C137.101 24.9235 139.101 23.0378 139.101 20.0762V8.99902H142.255"
    fill="#2C2C2C"/>
  <path
    d="M145.217 8.99968H148.37V12.1539H148.448C149.947 9.65442 151.756 8.76953 154.948 8.76953V12.2306C154.332 12.1931 153.37 12.1539 152.832 12.1539C149.793 12.1539 148.37 14.9602 148.37 17.0761V27.3844H145.217"
    fill="#2C2C2C"/>
  <path
    d="M169.024 15.0767C168.562 12.5772 166.678 11.0001 164.139 11.0001C159.679 11.0001 158.409 14.884 158.409 18.2309C158.409 21.8061 159.909 25.385 164.062 25.385C167.177 25.385 169.215 23.5385 169.331 20.4235L172.715 20.6911C172.178 25.153 168.792 27.847 164.177 27.847C158.255 27.847 155.024 23.9987 155.024 18.3843C155.024 12.6932 158.216 8.53809 164.139 8.53809C167.986 8.53809 171.523 10.538 172.408 14.7306"
    fill="#2C2C2C"/>
  <path
    d="M187.832 16.4223C187.447 13.4233 185.754 10.9988 182.293 10.9988C179.215 10.9988 177.446 13.616 177.255 16.4223H187.832ZM177.255 18.8843C177.255 22.5381 179.178 25.3837 182.793 25.3837C185.561 25.3837 187.253 23.9992 187.947 21.2696L191.062 21.6532C189.868 25.7672 186.753 27.8457 182.678 27.8457C177.06 27.9616 173.869 23.5764 173.869 18.3455C173.869 12.3832 176.677 8.53857 182.637 8.53857C188.407 8.53857 191.215 12.7311 191.215 18.1529V18.8843"
    fill="#2C2C2C"/>
  <path
    d="M196.983 24.2293H206.715C209.637 24.1918 211.753 22.8449 211.753 19.7674C211.753 15.0004 208.522 14.7684 205.407 14.7684H196.983V24.2293ZM196.983 11.616H205.329C208.29 11.616 210.947 10.8845 210.947 7.26825C210.947 3.15421 208.022 3.15421 205.293 3.15421H196.983V11.616ZM193.368 0H206.176C212.829 0 214.868 3.84643 214.868 7.11483C214.868 9.92294 213.137 12.1923 210.868 12.8845V12.9612C214.215 13.7694 215.676 16.5382 215.676 19.9226C215.676 21.9992 214.675 27.3835 207.368 27.3835H193.368"
    fill="#2C2C2C"/>
  <path
    d="M231.136 16.4223C230.751 13.4233 229.06 10.9988 225.599 10.9988C222.521 10.9988 220.753 13.616 220.559 16.4223H231.136ZM220.559 18.8843C220.559 22.5381 222.482 25.3837 226.098 25.3837C228.867 25.3837 230.56 23.9992 231.251 21.2696L234.367 21.6532C233.176 25.7672 230.061 27.8457 225.982 27.8457C220.368 27.9616 217.174 23.5764 217.174 18.3455C217.174 12.3832 219.982 8.53857 225.943 8.53857C231.713 8.53857 234.521 12.7311 234.521 18.1529V18.8843"
    fill="#2C2C2C"/>
  <path
    d="M236.368 8.99968H239.52V12.1539H239.597C241.097 9.65442 242.906 8.76953 246.098 8.76953V12.2306C245.482 12.1931 244.521 12.1539 243.982 12.1539C240.944 12.1539 239.52 14.9602 239.52 17.0761V27.3844H236.368"
    fill="#2C2C2C"/>
  <path
    d="M249.327 18.1916C249.327 22.0381 251.327 25.153 254.981 25.153C258.635 25.153 260.982 21.8061 260.906 18.0774C260.79 13 258.444 11.2302 254.981 11.2302C251.752 11.2302 249.327 13.4621 249.327 18.1916ZM260.906 9.00016H264.058V27.5383C264.058 30.3072 263.519 36.0001 255.596 36.0001C251.134 36.0001 247.327 34.1144 247.06 29.2671H250.442C250.366 32.2304 252.751 33.5381 255.482 33.5381C260.827 33.5381 260.906 29.7684 260.906 27.153V24.5375H260.827C259.097 26.7694 257.252 27.847 254.558 27.847C251.366 27.847 246.175 26.0005 246.175 18.1916C246.175 12.8466 248.828 8.53809 254.597 8.53809C257.559 8.53809 259.751 9.72983 260.827 11.4996L260.906 11.5389"
    fill="#2C2C2C"/>
  <path
    d="M279.634 16.4223C279.251 13.4233 277.558 10.9988 274.097 10.9988C271.019 10.9988 269.249 13.616 269.059 16.4223H279.634ZM269.059 18.8843C269.059 22.5381 270.982 25.3837 274.596 25.3837C277.365 25.3837 279.056 23.9992 279.75 21.2696L282.865 21.6532C281.672 25.7672 278.557 27.8457 274.48 27.8457C268.864 27.9616 265.672 23.5764 265.672 18.3455C265.672 12.3832 268.48 8.53857 274.441 8.53857C280.211 8.53857 283.019 12.7311 283.019 18.1529V18.8843"
    fill="#2C2C2C"/>
  <path
    d="M284.864 8.99935H288.02V11.4614H288.096C289.288 9.61485 291.095 8.53906 293.479 8.53906C297.174 8.53906 299.98 10.1536 299.98 15.2685V27.3841H296.826V15.5772C296.826 12.423 295.172 11.4614 292.942 11.4614C290.018 11.4614 288.02 13.3453 288.02 16.3069V27.3841H284.864"
    fill="#2C2C2C"/>
</svg>
