<svg width="118" height="36" viewBox="0 0 118 36" fill="none" xmlns="http://www.w3.org/2000/svg">
<path opacity="0.8" d="M97.8463 12.6851L102.707 18.0417L107.386 12.6851H117.378L107.613 23.6661L117.512 34.7368H107.117L102.302 29.3377L97.5313 34.7368H87.4937L97.3061 23.7118L87.4937 12.6851H97.8463Z" fill="#2C2C2C"/>
<path opacity="0.8" d="M87.4937 12.685V20.1356H76.3805V26.9727H87.4937V34.7367H68.2133V0H87.4937V7.74285H76.3805V12.685H87.4937Z" fill="#2C2C2C"/>
<path d="M60.0805 0V14.2159H59.9908C58.1889 12.1463 55.9398 11.4266 53.33 11.4266C47.9831 11.4266 43.955 15.063 42.5416 19.868C40.9274 14.5733 36.7687 11.327 30.6025 11.327C25.5951 11.327 21.6405 13.5745 19.5775 17.237V12.685H9.22646V7.74285H20.5225V0H0V34.7367H9.22646V20.1357H18.4235C18.1493 21.208 18.0024 22.357 18.0024 23.5697C18.0024 30.8147 23.5387 35.9004 30.6025 35.9004C36.5435 35.9004 40.459 33.1111 42.5285 28.027H34.6208C33.5518 29.5563 32.7406 30.0084 30.6025 30.0084C28.1233 30.0084 25.9852 27.8459 25.9852 25.2818H42.0862C42.7848 31.0367 47.2683 36 53.4198 36C56.0736 36 58.5039 34.6943 59.9891 32.4909H60.0789V34.74H68.2118V0H60.0805ZM26.2431 20.2385C26.7556 18.0318 28.4677 16.5907 30.6042 16.5907C32.9561 16.5907 34.58 17.9878 35.0077 20.2385C35.1872 20.2385 26.2431 20.2385 26.2431 20.2385ZM55.1433 29.4486C52.1451 29.4486 50.2812 26.6544 50.2812 23.7378C50.2812 20.6204 51.9019 17.6222 55.1433 17.6222C58.5039 17.6222 59.8422 20.6204 59.8422 23.7378C59.8422 26.6936 58.4239 29.4486 55.1433 29.4486Z" fill="#2C2C2C"/>
</svg>
