<svg width="147" height="30" viewBox="0 0 147 30" fill="none" xmlns="http://www.w3.org/2000/svg">
  <path
    d="M41.6117 7.09541C41.1138 7.09541 40.7403 7.46898 40.7403 7.96679V25.0207C39.4955 25.2696 38.1262 25.5187 36.7569 25.5187C33.7694 25.5187 32.7735 24.3983 32.7735 21.1618V7.96679C32.7735 7.46888 32.3999 7.09541 32.0266 7.09541H27.5453V21.1618C27.5453 27.7593 31.0308 29.8755 36.6324 29.8755C41.1138 29.8755 45.5951 28.6308 45.9686 28.5063V7.09541H41.6117ZM110.201 29.6265C110.575 29.6265 111.072 29.253 111.072 28.7552V11.5767C112.317 11.3279 113.686 11.0788 115.056 11.0788C118.043 11.0788 119.039 12.1992 119.039 15.4357V28.7552C119.039 29.2531 119.413 29.6265 119.786 29.6265H124.267V15.4357C124.267 8.83814 120.782 6.72196 115.18 6.72196C110.699 6.72196 106.218 7.96679 105.844 8.09128V29.6265H110.201ZM92.2757 6.72196C86.425 6.72196 82.8151 9.834 82.8151 16.6805V20.0415C82.8151 27.5104 86.7985 30 91.0308 30C93.147 30 95.3877 28.5063 96.0101 27.6349V29.0041C96.0101 29.3777 96.3837 29.751 96.757 29.751C96.757 29.751 101.114 29.751 101.238 29.751V7.96679C101.363 7.96679 97.0059 6.72196 92.2757 6.72196ZM96.1346 24.1494C95.1388 25.0208 94.3919 25.5187 92.2757 25.5187C89.2881 25.6433 88.0433 23.7759 88.0433 19.917V16.805C88.0433 12.4481 89.6615 11.2033 92.2757 11.2033C94.3919 11.2033 95.6367 11.328 96.1346 11.4522V24.1494ZM137.462 6.72196C131.612 6.72196 128.002 9.834 128.002 16.6805V20.0415C128.002 27.5104 131.985 30 136.342 30C138.458 30 140.699 28.5063 141.321 27.6349V29.0041C141.321 29.3777 141.695 29.751 142.068 29.751C142.068 29.751 146.425 29.751 146.55 29.751V7.96679C146.55 7.96679 142.193 6.72196 137.462 6.72196ZM141.321 24.1494C140.326 25.0208 139.579 25.5187 137.462 25.5187C134.475 25.5187 133.23 23.7759 133.23 19.917V16.805C133.23 12.3236 134.848 11.2033 137.462 11.2033C139.579 11.2033 140.823 11.328 141.321 11.4522V24.1494ZM0.90625 29.6265C1.65314 29.6265 5.63657 29.6265 5.63657 29.6265C6.01013 29.6265 6.38345 29.253 6.38345 28.8797V16.4315H15.0971C16.5909 16.4315 17.5868 17.5519 17.5868 18.7967V28.8797C17.5868 29.2532 17.9604 29.6265 18.3337 29.6265C18.3337 29.6265 22.815 29.6265 23.0639 29.6265C23.0639 29.6265 23.0639 0.248979 23.0639 0H18.3337C17.9601 0 17.5868 0.373502 17.5868 0.746829V11.9502H8.62411C7.37927 11.9502 6.5079 10.9544 6.5079 9.83405V0.746829C6.38322 0.497944 6.13434 0 5.63657 0H0.90625C0.90625 0.248885 0.90625 29.6265 0.90625 29.6265ZM70.9893 6.72196C68.4997 6.72196 66.1346 7.71784 65.0142 8.46473C63.3959 7.21988 61.1553 6.72196 58.4167 6.72196C54.3088 6.72196 50.8233 7.96678 50.3254 8.21576V29.751H54.8067C55.3047 29.751 55.5536 29.3775 55.5536 28.8797V11.5767C56.674 11.3279 57.5453 11.2031 58.2922 11.2031C61.4043 11.2031 62.1512 12.448 62.1512 15.56V28.8795C62.1512 29.2531 62.4001 29.7509 62.8981 29.7509H66.6325C67.1304 29.7509 67.3794 29.3773 67.3794 28.8795V12.199C68.2508 11.5766 69.371 11.2031 70.4914 11.2031C72.8566 11.2031 73.8524 12.3235 73.8524 15.1866V28.8795C73.8524 29.2531 74.1013 29.7509 74.5993 29.7509C74.5993 29.7509 78.7072 29.7509 79.0806 29.7509V14.4397C79.2053 8.71354 75.5952 6.72182 70.9893 6.72182V6.72196Z"
    fill="#2C2C2C"/>
</svg>
